<?xml version="1.0" standalone="no"?>
<!DOCTYPE svg PUBLIC "-//W3C//DTD SVG 20010904//EN"
 "http://www.w3.org/TR/2001/REC-SVG-20010904/DTD/svg10.dtd">
<svg version="1.0" xmlns="http://www.w3.org/2000/svg"
 width="512.000000pt" height="512.000000pt" viewBox="0 0 512.000000 512.000000"
 preserveAspectRatio="xMidYMid meet">

<g transform="translate(0.000000,512.000000) scale(0.100000,-0.100000)"
fill="#FFFFFF" stroke="none">
<path d="M1098 5054 c-189 -45 -348 -206 -393 -396 -11 -48 -15 -131 -15 -340
0 -265 1 -279 20 -298 24 -24 49 -25 76 -6 18 14 19 32 24 318 l5 303 32 67
c44 94 109 160 202 206 l75 37 1053 3 1053 2 0 -302 c0 -335 6 -381 61 -490
41 -82 145 -186 227 -227 109 -55 155 -61 490 -61 l302 0 -2 -1693 -3 -1693
-37 -75 c-46 -93 -112 -158 -206 -202 l-67 -32 -1395 -3 c-1011 -2 -1411 0
-1455 8 -160 31 -290 159 -324 318 -8 38 -11 489 -11 1586 0 1472 -1 1534 -18
1549 -24 22 -65 21 -85 -1 -16 -17 -17 -140 -17 -1563 0 -1696 -3 -1604 61
-1731 41 -82 145 -186 227 -227 126 -64 49 -61 1582 -61 1533 0 1456 -3 1582
61 82 41 186 145 227 227 64 127 61 17 61 1907 l0 1720 -552 552 -553 553
-1085 -1 c-889 -1 -1095 -3 -1142 -15z"/>
<path d="M2062 4599 c-95 -18 -194 -94 -240 -185 -76 -149 -68 -356 18 -486
98 -148 264 -199 408 -127 69 34 142 109 142 145 0 25 -31 64 -51 64 -19 0
-52 -22 -77 -52 -49 -58 -147 -85 -215 -59 -41 16 -97 71 -125 125 -25 46 -27
61 -27 161 0 100 2 115 27 160 48 91 112 137 193 137 57 0 86 -14 150 -72 59
-53 84 -58 113 -22 23 29 13 62 -33 111 -73 78 -188 119 -283 100z"/>
<path d="M2425 4585 c-14 -13 -25 -28 -25 -32 0 -24 270 -747 285 -763 20 -22
65 -26 95 -10 21 11 34 44 185 462 115 318 119 339 68 359 -54 20 -66 -2 -180
-316 -58 -159 -108 -293 -112 -298 -4 -4 -56 126 -115 290 -124 343 -141 369
-201 308z"/>
<path d="M706 3908 c-24 -35 -22 -142 4 -168 11 -11 29 -20 40 -20 11 0 29 9
40 20 28 28 29 149 2 173 -26 24 -68 21 -86 -5z"/>
<path d="M1610 3431 c-73 -23 -125 -57 -183 -120 -154 -165 -156 -415 -4 -588
18 -20 59 -54 91 -75 l59 -38 -111 0 c-135 0 -196 -19 -261 -82 -143 -136
-109 -364 68 -455 l63 -33 407 0 c473 0 472 0 558 85 40 41 55 65 69 110 40
139 -14 272 -138 340 -50 28 -61 30 -183 33 l-130 4 36 19 c70 35 147 116 186
196 32 65 37 86 41 162 8 163 -49 285 -177 382 -100 75 -266 100 -391 60z"/>
<path d="M2606 3198 c-22 -31 -20 -45 9 -73 l24 -25 264 0 c252 0 266 1 291
21 30 23 33 45 10 77 -15 22 -17 22 -299 22 -282 0 -284 0 -299 -22z"/>
<path d="M2606 2698 c-22 -31 -20 -45 9 -73 l24 -25 586 0 586 0 24 25 c29 28
31 42 9 73 l-15 22 -604 0 -604 0 -15 -22z"/>
<path d="M2606 2198 c-22 -31 -20 -45 9 -73 l24 -25 663 0 c731 0 708 -2 708
60 0 63 36 60 -710 60 l-679 0 -15 -22z"/>
<path d="M1122 1708 c-7 -7 -12 -27 -12 -44 0 -62 8 -64 348 -64 l303 0 24 25
c29 28 31 42 9 73 -15 22 -16 22 -338 22 -237 0 -325 -3 -334 -12z"/>
<path d="M2112 1708 c-7 -7 -12 -27 -12 -44 0 -68 -55 -64 955 -64 1003 0 955
-3 955 60 0 64 62 60 -959 60 -708 0 -930 -3 -939 -12z"/>
<path d="M1122 1208 c-7 -7 -12 -27 -12 -44 0 -62 8 -64 348 -64 l303 0 24 25
c29 28 31 42 9 73 -15 22 -16 22 -338 22 -237 0 -325 -3 -334 -12z"/>
<path d="M2112 1208 c-7 -7 -12 -27 -12 -44 0 -68 -55 -64 955 -64 1003 0 955
-3 955 60 0 64 62 60 -959 60 -708 0 -930 -3 -939 -12z"/>
<path d="M1122 708 c-7 -7 -12 -27 -12 -44 0 -62 8 -64 348 -64 l303 0 24 25
c29 28 31 42 9 73 -15 22 -16 22 -338 22 -237 0 -325 -3 -334 -12z"/>
<path d="M2110 705 c-20 -24 -15 -67 10 -87 21 -17 69 -18 934 -18 1004 0 956
-3 956 60 0 64 62 60 -959 60 -814 0 -930 -2 -941 -15z"/>
</g>
</svg>
