<?xml version="1.0" standalone="no"?>
<!DOCTYPE svg PUBLIC "-//W3C//DTD SVG 20010904//EN"
 "http://www.w3.org/TR/2001/REC-SVG-20010904/DTD/svg10.dtd">
<svg version="1.0" xmlns="http://www.w3.org/2000/svg"
 width="4961.000000pt" height="3543.000000pt" viewBox="0 0 4961.000000 3543.000000"
 preserveAspectRatio="xMidYMid meet">

<g transform="translate(0.000000,3543.000000) scale(0.100000,-0.100000)"
fill="#000000" stroke="none">
<path d="M0 28334 c0 -6007 2 -7095 14 -7085 9 8 105 11 332 9 l319 -3 3 -310
c1 -170 0 -320 -3 -332 -5 -22 -8 -23 -145 -23 l-140 0 0 -1885 0 -1885 460
-511 460 -511 0 -274 0 -274 75 0 75 0 0 -190 0 -190 -75 0 -75 0 0 -455 0
-454 -540 -600 -540 -600 0 -1030 0 -1031 105 0 105 0 0 -235 0 -235 -105 0
-105 0 0 -2013 0 -2013 600 -666 600 -667 46 16 c38 13 52 13 89 3 85 -24 140
-118 115 -196 -16 -49 -64 -101 -102 -109 l-28 -7 0 -568 c0 -565 0 -569 21
-575 11 -4 27 -22 36 -41 15 -31 15 -37 0 -68 -9 -19 -25 -37 -36 -41 l-21 -6
0 -1640 0 -1639 150 0 150 0 0 869 0 869 -37 19 c-104 52 -104 174 0 226 l37
19 0 150 c0 147 0 151 -24 169 -54 43 -54 135 0 178 l24 19 0 355 0 356 330
366 330 366 0 389 0 390 -165 0 -165 0 0 315 0 315 165 0 165 0 0 428 0 428
-535 594 -535 594 0 171 0 170 -29 17 c-87 49 -87 167 0 216 l29 17 0 648 0
647 -154 0 c-131 0 -155 2 -160 16 -3 9 -6 154 -6 323 0 225 3 310 12 319 8 8
58 12 160 12 l148 0 0 268 0 268 188 210 c104 115 461 512 795 883 l607 674 0
813 0 814 -192 2 -193 3 0 400 0 400 193 3 192 2 0 243 0 242 -352 390 c-193
215 -382 425 -419 468 l-69 77 -1 498 c-1 472 -4 546 -22 541 -19 -4 -117 14
-186 36 -42 14 -88 25 -103 25 -15 0 -37 5 -50 11 -34 16 -157 201 -204 306
-22 51 -49 102 -60 114 -10 12 -18 23 -16 25 1 2 2 5 1 7 -14 43 11 319 32
360 5 9 7 17 3 17 -4 0 0 8 9 18 10 10 15 21 12 23 -2 3 18 26 44 52 26 26 72
83 102 126 55 82 80 101 127 101 15 0 61 11 103 25 69 22 167 40 186 36 17 -4
21 56 22 339 l1 295 -440 489 -440 488 0 2509 0 2509 -144 0 c-122 0 -145 2
-150 16 -3 9 -6 154 -6 324 0 248 3 310 14 319 9 8 105 11 332 9 l319 -3 3
-310 c1 -170 0 -320 -3 -332 -5 -23 -8 -23 -165 -23 l-160 0 0 -2073 0 -2073
22 -30 c13 -17 201 -227 418 -469 l395 -438 5 1140 5 1140 76 84 c42 46 245
272 452 502 l377 418 0 2244 0 2245 -187 2 -188 3 0 400 0 400 400 0 400 0 0
-400 0 -400 -192 -3 -193 -2 0 -2249 0 -2249 -28 -33 c-15 -18 -219 -247 -455
-508 l-427 -474 0 -1842 c0 -1013 3 -1869 6 -1902 l7 -61 41 0 c90 -2 320 -84
356 -127 7 -8 16 -15 21 -15 5 0 22 -14 37 -31 15 -17 34 -39 43 -49 20 -22
61 -109 82 -175 29 -91 38 -149 39 -245 0 -322 -178 -556 -477 -625 -38 -9
-85 -17 -106 -17 l-36 0 -7 -61 c-3 -33 -6 -263 -6 -512 l0 -453 420 -466 420
-467 0 -249 0 -250 188 -2 187 -3 0 -400 0 -400 -187 -3 -188 -2 0 -820 0
-819 -64 -73 c-35 -40 -393 -437 -795 -883 l-730 -810 -1 -262 0 -262 153 -3
152 -3 3 -310 c1 -170 0 -320 -3 -332 -5 -23 -8 -23 -155 -23 l-150 0 0 -350
0 -351 498 -553 497 -554 55 1 c93 2 153 -52 153 -138 0 -68 -39 -116 -115
-139 -17 -5 -18 -37 -18 -490 l0 -485 340 -377 340 -378 0 -1242 0 -1243 36
-7 c136 -25 147 -218 14 -254 -37 -10 -90 -1 -114 19 -9 8 -57 -38 -182 -177
-93 -103 -209 -231 -257 -284 l-88 -97 156 -173 155 -173 0 -131 0 -131 53
-59 c29 -32 63 -72 75 -88 l22 -29 0 -708 0 -709 688 0 687 0 -3 503 -2 503
-29 11 c-86 32 -86 174 0 206 l29 11 0 303 0 303 -125 0 -125 0 0 250 0 250
125 0 125 0 0 308 -1 307 -539 599 -540 599 0 1571 0 1572 375 416 375 417 0
365 0 366 -197 2 -198 3 0 400 0 400 198 3 197 2 0 469 0 468 -284 315 -285
316 -41 -14 c-153 -53 -265 139 -145 245 20 17 45 31 55 31 20 0 20 11 20 764
l0 763 28 34 c15 19 228 258 475 532 l447 497 0 789 0 790 -335 372 -335 372
0 277 0 276 -171 190 c-95 104 -256 281 -358 393 -102 112 -193 213 -201 225
-14 19 -15 206 -12 1684 l4 1663 636 707 c350 389 669 743 709 787 l73 80 0
2002 0 2003 -75 0 -75 0 0 200 0 200 200 0 200 0 0 -200 0 -200 -105 0 -105 0
0 -2548 0 -2549 -710 -788 -710 -788 0 -574 0 -574 348 -386 347 -386 3 421 2
421 235 260 c230 255 234 260 225 291 -13 45 -2 86 31 119 85 86 225 8 202
-112 -15 -75 -123 -119 -181 -74 -7 5 -15 7 -18 4 -3 -3 -107 -117 -230 -254
l-223 -248 -1 -817 0 -817 40 -38 c21 -21 260 -283 530 -583 l490 -545 0 -782
0 -783 183 0 c129 0 187 -4 195 -12 9 -9 12 -94 12 -319 0 -169 -3 -314 -6
-323 -5 -14 -32 -16 -195 -16 l-189 0 0 -217 0 -218 118 -131 c517 -574 725
-804 730 -804 2 0 20 10 40 22 95 59 215 -6 215 -117 0 -68 -39 -116 -115
-139 -17 -5 -18 -47 -18 -690 l0 -685 158 -3 157 -3 3 -310 c1 -170 0 -320 -3
-332 -5 -23 -8 -23 -160 -23 l-155 0 0 -972 0 -973 -481 -545 c-265 -300 -678
-767 -918 -1039 -240 -272 -448 -510 -464 -529 -23 -30 -27 -44 -27 -103 l0
-69 153 0 c106 0 157 -4 165 -12 9 -9 12 -94 12 -319 0 -169 -3 -314 -6 -323
-5 -14 -29 -16 -165 -16 l-160 0 3 -109 3 -110 449 -498 450 -499 39 13 c150
52 261 -141 142 -246 -20 -17 -40 -31 -45 -31 -7 0 -10 -518 -10 -1430 l0
-1430 130 0 130 0 0 1398 1 1397 149 165 149 165 1 128 0 127 -95 0 -95 0 0
190 0 190 95 0 95 0 0 95 0 95 -92 103 c-50 56 -113 126 -139 155 l-48 53 -49
-16 c-165 -54 -290 149 -168 271 65 65 167 65 232 0 54 -54 64 -126 27 -199
-14 -28 -13 -29 104 -158 183 -202 173 -185 173 -301 l0 -98 75 0 75 0 0 -190
0 -190 -75 0 -75 0 0 -134 0 -133 -150 -168 -150 -167 0 -1389 0 -1388 158 -3
157 -3 0 -330 0 -330 -157 -3 -158 -3 0 -169 0 -170 835 0 835 0 0 375 0 375
-515 572 -515 572 2 826 c3 725 5 825 18 825 13 0 15 -44 18 -325 l2 -326 515
-572 515 -572 0 -875 0 -875 191 0 191 0 -5 1671 c-4 1304 -7 1673 -17 1679
-12 7 -83 -5 -104 -18 -17 -10 -47 -3 -96 23 -49 25 -188 71 -207 67 -6 -1
-14 2 -18 8 -3 5 -16 10 -29 10 -13 0 -31 9 -41 20 -10 11 -20 18 -22 16 -2
-2 -18 11 -37 28 -18 17 -51 48 -73 69 -22 20 -43 47 -46 60 -45 209 -49 238
-49 367 1 120 6 172 27 260 4 14 7 31 7 38 1 6 6 12 11 12 6 0 8 3 4 6 -7 7
33 54 47 54 6 0 31 23 56 50 59 66 136 126 207 160 70 33 118 73 111 92 -8 18
-159 191 -451 518 l-247 275 0 1021 0 1020 350 390 350 389 0 1043 0 1043
-435 482 -434 482 -1 1496 0 1496 -242 269 c-133 148 -259 288 -280 311 l-38
43 0 1145 0 1145 546 608 c301 334 560 621 576 638 l30 32 -16 47 c-13 36 -14
55 -6 84 34 127 215 127 250 -1 27 -95 -64 -186 -158 -158 -30 8 -35 6 -71
-33 -22 -23 -280 -310 -575 -637 l-536 -595 0 -92 c0 -51 2 -93 4 -93 2 0 260
285 574 633 314 349 577 640 585 648 8 8 17 24 21 36 9 27 35 50 67 58 20 5
33 0 54 -18 38 -33 39 -81 1 -114 -33 -28 -56 -29 -88 -4 l-24 19 -595 -660
-594 -660 -3 -102 -3 -101 45 45 c72 72 1098 1214 1101 1225 34 113 68 149
145 149 61 0 103 -30 126 -89 16 -43 16 -47 0 -90 -38 -98 -148 -122 -221 -49
l-33 33 -581 -645 -581 -645 0 -90 c0 -50 4 -89 9 -87 4 2 259 282 565 623
592 658 627 695 651 695 19 0 55 -35 55 -55 0 -8 -9 -24 -21 -36 -20 -20 -32
-20 -70 -5 -11 5 -164 -159 -585 -625 -313 -348 -577 -644 -586 -658 -16 -24
-18 -60 -18 -374 0 -242 3 -355 11 -370 7 -12 53 -67 103 -122 51 -55 172
-189 269 -298 l177 -197 0 -1495 0 -1495 408 -454 c224 -250 410 -455 415
-455 4 -1 7 161 7 359 l0 360 -149 0 c-127 0 -150 2 -155 16 -3 9 -6 154 -6
323 0 225 3 310 12 319 8 8 57 12 155 12 l143 0 0 515 0 515 -197 2 -198 3 0
400 0 400 400 0 400 0 0 -400 0 -400 -182 -3 -183 -2 0 -515 0 -515 148 0
c102 0 152 -4 160 -12 9 -9 12 -94 12 -319 0 -169 -3 -314 -6 -323 -5 -14 -29
-16 -160 -16 l-154 0 0 -1830 0 -1830 -317 -353 c-174 -193 -334 -371 -355
-394 l-38 -43 0 -310 c0 -170 3 -310 8 -310 4 0 174 185 377 411 204 227 432
480 507 563 l138 151 0 532 0 532 -38 11 c-130 34 -128 215 2 251 l36 10 0
574 0 575 96 107 c659 736 712 798 725 848 40 154 62 198 112 221 46 22 68 35
112 70 93 71 245 116 395 116 216 0 397 -82 512 -230 60 -78 97 -165 119 -286
11 -55 25 -130 32 -166 11 -53 11 -74 1 -115 -18 -71 -78 -188 -129 -255 -49
-64 -168 -177 -202 -193 -13 -6 -23 -13 -23 -17 0 -9 -8 -10 -128 -14 -56 -1
-104 -5 -106 -7 -2 -2 -7 -160 -10 -351 l-7 -346 35 -17 c32 -15 66 -64 66
-95 0 -30 -34 -80 -66 -95 l-34 -16 0 -272 0 -272 -445 -494 -445 -494 0 -389
0 -388 138 0 c94 0 142 -4 150 -12 9 -9 12 -94 12 -319 0 -169 -3 -314 -6
-323 -5 -14 -28 -16 -150 -16 l-144 0 0 -240 0 -240 142 -157 c78 -87 176
-196 218 -242 l75 -84 5 -770 5 -769 431 478 c237 264 472 525 522 581 l92
103 0 668 0 668 -30 29 c-34 32 -52 78 -48 123 3 27 -26 63 -289 355 -288 320
-292 325 -338 331 -91 14 -143 101 -109 185 37 94 148 117 219 46 54 -55 54
-144 0 -195 l-25 -23 73 -81 c40 -45 169 -188 286 -319 198 -219 215 -236 231
-222 46 42 135 37 178 -8 74 -79 30 -204 -78 -222 l-40 -7 0 -639 c0 -351 4
-639 9 -639 4 0 121 126 260 279 l251 280 0 3480 0 3481 -164 0 c-140 0 -165
2 -170 16 -3 9 -6 154 -6 323 0 225 3 310 12 319 8 8 60 12 170 12 l158 0 0
493 0 492 -391 435 c-382 425 -392 435 -429 436 -50 0 -86 25 -100 69 -10 30
-9 41 7 72 38 79 146 77 179 -3 14 -34 14 -41 0 -78 l-16 -40 34 -36 c18 -19
160 -177 316 -350 156 -173 310 -344 342 -379 l58 -64 0 194 -1 194 -374 415
c-365 404 -376 415 -420 424 -106 20 -147 133 -74 205 49 49 119 49 168 0 45
-45 49 -104 9 -161 -10 -14 -18 -29 -18 -32 0 -2 169 -192 375 -421 l375 -416
0 -725 0 -724 133 0 c90 0 137 -4 145 -12 9 -9 12 -94 12 -319 0 -169 -3 -314
-6 -323 -5 -14 -28 -16 -145 -16 l-139 0 0 -3712 0 -3713 -258 -286 c-141
-157 -520 -577 -842 -934 -322 -357 -691 -767 -820 -910 -129 -144 -337 -375
-462 -513 l-228 -252 0 -1280 0 -1280 315 0 315 0 0 295 0 295 -130 0 -130 0
0 280 0 280 130 0 130 0 0 671 0 672 -35 34 c-19 18 -39 51 -45 73 -30 113 77
221 188 190 35 -10 39 -8 67 22 46 52 1257 1395 1618 1796 l327 363 0 2813 0
2813 355 393 c294 327 354 398 348 415 -21 59 9 120 70 144 32 12 40 11 74 -5
25 -12 45 -32 57 -57 16 -34 17 -42 5 -74 -25 -64 -64 -82 -157 -71 -20 3 -83
-62 -367 -377 l-344 -380 0 -437 c-1 -241 1 -438 3 -438 2 0 162 175 355 390
194 214 359 390 367 390 8 0 14 -6 14 -13 0 -8 -166 -198 -370 -423 l-369
-409 -1 -2814 0 -2814 -54 -61 c-30 -34 -507 -563 -1060 -1176 l-1006 -1115 0
-257 0 -258 130 0 130 0 0 -280 0 -280 -130 0 -130 0 0 -295 0 -295 660 0 660
0 0 580 0 580 -164 0 c-140 0 -165 2 -170 16 -3 9 -6 154 -6 323 0 225 3 310
12 319 8 8 60 12 170 12 l158 0 0 33 c1 28 51 88 415 491 l415 460 0 211 0
211 -29 22 c-61 45 -61 139 0 184 l29 22 0 1982 0 1983 48 54 c26 30 202 226
392 437 287 318 345 387 342 409 -7 75 -5 92 15 118 11 16 36 34 56 42 32 12
40 11 74 -5 25 -12 45 -32 57 -57 16 -34 17 -42 5 -74 -24 -61 -91 -92 -155
-72 -6 2 -187 -192 -403 -431 l-391 -435 2 -1974 3 -1973 34 -12 c101 -33 101
-174 0 -214 l-39 -15 0 -214 0 -213 -83 -92 c-45 -51 -234 -261 -419 -467
-186 -206 -338 -383 -338 -393 0 -17 11 -18 138 -18 94 0 142 -4 150 -12 9 -9
12 -94 12 -319 0 -169 -3 -314 -6 -323 -5 -14 -28 -16 -150 -16 l-144 0 0
-580 0 -580 940 0 940 0 0 895 0 895 -95 0 -95 0 0 185 0 185 95 0 95 0 0 383
0 384 -25 13 c-78 42 -78 168 0 210 l25 13 0 443 0 444 -167 2 -168 3 0 400 0
400 168 3 167 2 0 378 0 378 63 69 c35 39 278 308 540 599 l477 529 0 834 c0
714 -2 833 -14 833 -26 0 -75 51 -87 89 -10 35 -4 62 28 123 2 3 -187 219
-421 478 l-426 472 0 984 0 984 -130 0 -130 0 0 255 0 255 130 0 130 0 0 669
0 669 -43 21 c-107 52 -108 200 -2 251 52 25 68 25 120 0 103 -50 105 -201 3
-248 l-37 -17 -1 -672 0 -673 105 0 105 0 0 -255 0 -255 -105 0 -105 0 0 -977
1 -978 419 -465 419 -465 50 0 c60 0 97 -24 125 -79 16 -32 17 -44 7 -76 -12
-39 -61 -90 -87 -90 -12 0 -14 -120 -14 -840 l0 -840 -38 -43 c-21 -23 -243
-269 -492 -547 -250 -278 -476 -529 -502 -558 l-48 -54 0 -369 0 -369 213 -2
212 -3 0 -400 0 -400 -213 -3 -212 -2 2 -443 3 -442 22 -3 c13 -2 36 -16 52
-32 49 -50 49 -120 0 -170 -16 -16 -39 -30 -52 -32 l-22 -3 -3 -383 -2 -382
70 0 70 0 0 -185 0 -185 -70 0 -70 0 0 -895 0 -895 716 0 c681 0 716 1 703 18
-8 9 -58 65 -111 124 l-98 108 0 484 0 484 -45 7 c-172 25 -172 265 0 290 l45
7 0 424 0 424 -90 0 -90 0 0 245 0 245 90 0 90 0 0 243 0 244 522 579 c428
476 700 782 784 884 12 14 24 91 39 235 19 189 80 325 195 436 l37 35 6 199
c4 109 7 431 7 716 l0 519 -162 2 -163 3 0 400 0 400 163 3 162 2 0 138 -1
137 -419 465 -420 465 0 411 0 412 -29 5 c-36 7 -96 59 -118 101 -21 40 -21
132 0 172 22 42 82 94 118 101 l29 5 0 877 -1 876 -226 250 c-124 138 -322
357 -440 488 l-213 237 0 2510 0 2510 -144 0 c-122 0 -145 2 -150 16 -3 9 -6
154 -6 323 0 225 3 310 12 319 17 17 629 17 646 0 9 -9 12 -94 12 -319 0 -169
-3 -314 -6 -323 -5 -14 -29 -16 -165 -16 l-159 0 0 -2073 c0 -1943 1 -2074 17
-2097 22 -32 812 -910 818 -910 3 0 5 122 5 270 l0 270 -144 0 c-122 0 -145 2
-150 16 -3 9 -6 154 -6 323 0 225 3 310 12 319 8 8 56 12 150 12 l138 0 0 529
0 530 48 54 c26 29 230 257 455 505 l407 452 0 2068 c0 1138 -3 2109 -6 2158
l-7 90 -86 21 c-47 11 -120 37 -162 57 -42 20 -86 36 -96 36 -37 0 -75 43
-113 124 -74 163 -101 271 -101 406 0 135 27 243 101 406 38 81 76 124 113
124 10 0 54 16 96 36 112 53 208 75 326 75 389 2 647 -254 647 -641 0 -216
-82 -397 -230 -512 -53 -41 -143 -87 -202 -103 -14 -3 -54 -20 -89 -37 -62
-30 -64 -30 -98 -14 -19 9 -39 14 -44 11 -5 -4 -9 -842 -9 -2163 l0 -2157
-455 -505 -455 -505 0 -522 0 -523 153 0 c106 0 157 -4 165 -12 9 -9 12 -94
12 -319 0 -169 -3 -314 -6 -323 -5 -14 -29 -16 -165 -16 l-159 0 0 -1600 c0
-1272 3 -1601 13 -1604 6 -3 24 -7 39 -10 35 -8 94 -59 115 -100 21 -40 21
-132 0 -172 -21 -41 -80 -92 -115 -100 -15 -3 -33 -7 -39 -10 -10 -3 -13 -92
-13 -404 l0 -401 409 -454 c225 -249 414 -463 420 -474 6 -11 11 -78 11 -155
l0 -136 218 -2 217 -3 0 -400 0 -400 -217 -3 -218 -2 0 -696 0 -695 44 36 c43
36 45 37 147 41 57 2 122 4 143 3 22 0 43 6 47 13 5 7 9 60 9 118 1 100 2 107
28 136 15 17 228 254 474 527 l448 495 0 790 0 789 -335 372 -335 372 0 277
-1 277 -369 410 -370 409 0 746 0 745 -35 28 c-67 53 -66 151 0 204 l35 28 0
791 0 791 472 524 c259 288 579 643 710 788 l238 264 0 2004 0 2003 -23 0
c-13 0 -44 13 -69 29 -102 65 -134 198 -72 298 90 144 288 144 378 0 60 -97
30 -231 -64 -293 -22 -15 -54 -29 -72 -33 l-33 -7 -3 -2546 -2 -2546 -552
-613 c-304 -338 -623 -693 -710 -789 l-158 -175 0 -242 0 -242 38 -11 c130
-34 128 -215 -2 -251 l-36 -10 0 -197 1 -197 347 -385 347 -384 3 420 2 421
201 224 c111 123 210 233 220 245 18 20 18 23 3 59 -42 100 67 206 163 158
105 -52 104 -175 -1 -227 -32 -16 -44 -17 -74 -8 -19 6 -39 9 -44 6 -4 -3
-102 -110 -218 -239 l-210 -234 0 -816 c0 -805 0 -817 20 -833 11 -10 249
-271 530 -582 l509 -565 0 -492 1 -493 143 0 c98 0 147 -4 155 -12 9 -9 12
-94 12 -319 0 -169 -3 -314 -6 -323 -5 -14 -28 -16 -155 -16 l-149 0 0 -509 0
-509 485 -538 485 -538 0 -332 c0 -182 3 -366 7 -408 5 -67 9 -79 28 -86 12
-5 34 -23 49 -41 24 -28 27 -40 23 -79 -2 -25 -6 -52 -8 -60 -4 -15 10 -16 85
-7 34 4 43 0 75 -30 20 -19 56 -48 81 -65 76 -52 172 -158 208 -230 54 -110
75 -206 75 -343 0 -137 -21 -233 -75 -343 -36 -72 -132 -178 -208 -230 -25
-17 -61 -46 -81 -65 -31 -29 -42 -34 -70 -30 -68 9 -108 6 -140 -13 l-34 -20
-6 -185 c-4 -101 -7 -483 -8 -849 l-1 -666 -500 -567 c-275 -311 -500 -569
-500 -572 0 -3 351 -5 780 -5 l780 0 -2 169 c-2 136 0 172 12 187 8 10 167
186 353 392 l337 375 0 644 0 643 -24 -6 c-40 -10 -108 15 -147 55 -78 77 -73
194 11 265 36 30 102 50 136 42 l24 -6 0 225 0 226 -202 222 c-112 122 -286
312 -388 422 -102 111 -206 226 -233 257 l-48 56 1 1065 0 1066 -29 17 c-85
50 -85 188 0 238 l29 17 0 297 0 297 -221 245 c-122 135 -248 275 -280 313
l-59 68 0 1143 0 1144 592 657 c326 361 598 666 605 678 6 12 17 37 24 55 8
22 24 39 46 50 30 14 36 14 66 0 70 -34 70 -122 0 -156 -30 -15 -36 -14 -70 2
-35 16 -37 16 -53 -1 -10 -10 -262 -290 -561 -623 -299 -333 -559 -621 -577
-642 -33 -36 -33 -36 -30 -129 l3 -93 576 640 c554 615 576 641 583 687 18
117 149 163 231 82 56 -56 56 -134 0 -190 -55 -54 -131 -56 -187 -3 -17 16
-32 27 -33 26 -1 -2 -244 -273 -541 -602 -296 -330 -560 -624 -586 -653 l-48
-54 0 -95 c0 -53 4 -94 8 -92 5 2 267 290 583 641 345 384 578 651 585 670 21
62 102 70 124 12 21 -54 -30 -106 -85 -85 -23 9 -53 -22 -557 -583 -293 -326
-561 -623 -595 -660 l-63 -69 0 -90 c0 -50 4 -88 9 -86 23 8 1161 1284 1161
1302 0 44 40 104 84 125 50 25 66 26 110 7 96 -40 121 -158 50 -230 -56 -55
-145 -53 -201 4 l-29 30 -560 -621 c-307 -341 -574 -638 -591 -661 l-33 -41 0
-358 0 -359 280 -311 280 -311 0 -684 0 -683 39 -11 c139 -37 139 -233 0 -270
l-39 -11 0 -665 0 -666 38 -42 c234 -264 776 -862 783 -864 5 -2 9 203 9 477
l0 481 -149 0 c-127 0 -150 2 -155 16 -3 9 -6 154 -6 323 0 225 3 310 12 319
8 8 57 12 155 12 l143 0 0 395 0 395 -193 2 -192 3 0 400 0 400 400 0 400 0 0
-400 0 -400 -187 -3 -188 -2 0 -395 0 -395 154 0 c131 0 155 -2 160 -16 3 -9
6 -152 6 -319 0 -167 -3 -310 -6 -319 -5 -14 -29 -16 -160 -16 l-154 0 0
-1129 0 -1129 39 -39 c79 -79 76 -195 -9 -266 l-30 -26 0 -656 0 -655 -127
-143 c-70 -78 -230 -256 -355 -395 l-228 -252 0 -160 0 -160 144 0 144 0 371
412 371 413 0 477 0 478 -105 0 -105 0 0 230 0 230 105 0 105 0 0 496 0 497
-37 32 c-30 26 -37 39 -37 68 0 68 67 112 126 82 17 -8 32 -14 33 -13 1 2 752
837 858 955 18 21 19 26 7 49 -44 81 13 177 105 177 70 0 119 -48 119 -118 0
-75 -50 -120 -132 -118 l-52 1 -407 -451 c-223 -249 -421 -468 -440 -488 -24
-25 -35 -48 -38 -75 -2 -28 -12 -46 -34 -66 l-31 -28 0 -500 0 -500 105 0 105
0 0 -230 0 -230 -105 0 -105 0 0 -890 0 -890 265 0 265 0 0 475 0 475 450 500
450 500 0 405 0 405 -105 0 -105 0 0 205 0 205 105 0 105 0 0 226 0 227 -34
38 c-67 73 -68 169 -2 235 118 118 319 2 275 -158 -20 -77 -114 -140 -184
-122 l-25 6 0 -226 0 -226 85 0 85 0 0 -205 0 -205 -85 0 -85 0 0 -418 0 -417
-445 -495 -445 -494 -2 -468 -3 -468 558 0 558 0 -23 29 c-13 16 -84 97 -158
179 -121 134 -138 149 -160 143 -107 -27 -204 43 -204 149 0 156 205 213 287
81 29 -47 28 -116 -2 -164 l-23 -37 119 -132 c65 -72 141 -157 168 -189 l50
-58 438 0 437 -1 0 2445 0 2445 -85 0 -85 0 0 185 0 185 85 0 85 0 0 530 0
530 -169 0 c-145 0 -170 2 -175 16 -3 9 -6 154 -6 323 0 225 3 310 12 319 8 8
62 12 175 12 l163 0 0 193 -1 192 -375 416 -375 417 -49 -21 c-50 -21 -50 -21
-97 -1 -40 16 -52 27 -72 67 -21 44 -23 52 -12 89 16 51 48 83 98 98 35 11 46
10 87 -8 39 -18 50 -29 68 -68 17 -39 19 -53 10 -82 -9 -29 -8 -39 6 -57 9
-11 172 -193 362 -404 l345 -382 3 191 2 191 -397 440 c-333 370 -400 439
-418 435 -33 -8 -96 13 -126 43 -80 81 -42 220 67 250 144 39 246 -131 149
-248 l-25 -29 395 -438 395 -438 0 -423 0 -423 128 0 c86 0 132 -4 140 -12 9
-9 12 -94 12 -319 0 -169 -3 -314 -6 -323 -5 -14 -27 -16 -140 -16 l-134 0 0
-530 0 -530 80 0 80 0 0 -185 0 -185 -80 0 -80 0 0 -2445 0 -2445 70 0 70 0 0
1718 0 1717 359 399 360 399 -24 19 c-14 11 -30 36 -36 58 -16 52 11 107 64
133 33 17 42 17 79 5 52 -17 83 -56 83 -108 0 -52 -31 -91 -85 -110 -37 -13
-89 -66 -402 -412 l-358 -398 2 -437 3 -437 323 358 323 358 -29 33 c-95 107
8 273 146 236 112 -31 144 -173 57 -250 -34 -30 -47 -34 -108 -35 -23 -1 -80
-58 -372 -381 l-344 -380 0 -1242 c-1 -1099 1 -1243 14 -1243 13 0 15 22 15
135 l0 135 366 407 c202 225 380 422 397 440 l30 32 -31 35 c-65 74 -62 168 7
237 47 47 104 64 163 48 55 -14 113 -72 127 -127 31 -115 -77 -233 -199 -217
l-35 5 -390 -435 -390 -436 -3 -129 -3 -130 1091 0 1090 0 0 773 0 772 -35 19
c-105 57 -105 215 0 272 l35 19 0 525 0 525 -411 456 -411 457 -33 -11 c-47
-14 -104 15 -129 67 -17 36 -18 43 -5 79 18 52 58 82 109 81 51 -2 88 -26 107
-72 14 -33 14 -41 0 -80 l-15 -43 414 -460 414 -459 0 -529 c0 -456 2 -530 15
-534 8 -4 17 -2 20 3 3 5 5 486 4 1069 l-2 1060 -121 3 -121 3 0 330 0 330
116 3 116 3 7 67 c3 37 6 140 6 230 l0 162 -326 363 c-180 199 -334 370 -344
380 -17 18 -19 18 -66 1 -48 -17 -51 -16 -97 4 -40 18 -51 29 -69 68 -18 41
-19 52 -8 87 15 50 47 82 97 97 35 11 46 10 87 -8 39 -18 50 -29 68 -68 17
-41 19 -52 9 -86 -7 -21 -9 -44 -4 -50 19 -33 642 -715 647 -710 3 3 6 198 6
434 l0 428 -138 152 c-76 84 -222 248 -326 363 -104 116 -196 218 -205 228
-16 16 -19 16 -58 1 -39 -15 -44 -15 -80 2 -52 26 -79 80 -63 128 42 128 218
94 213 -41 l-2 -44 345 -381 344 -382 0 -682 c0 -375 3 -696 6 -713 6 -31 7
-31 70 -31 l64 0 0 1580 0 1580 -210 0 -210 0 0 490 0 490 210 0 210 0 0 840
0 839 371 413 c205 227 378 420 386 430 12 13 12 23 2 56 -25 85 54 165 140
142 106 -28 117 -165 17 -214 -32 -16 -44 -17 -75 -8 -32 10 -38 9 -58 -11
-12 -12 -184 -202 -382 -422 l-361 -400 0 -188 c0 -104 4 -187 8 -185 5 1 156
167 337 368 180 201 343 381 361 400 l34 36 -16 41 c-15 39 -15 44 2 80 39 79
146 77 180 -2 29 -71 -17 -138 -96 -139 -36 -1 -46 -11 -321 -316 -156 -173
-329 -366 -386 -428 l-103 -113 0 -610 0 -609 260 0 260 0 0 -490 0 -490 -260
0 -260 0 0 -1580 0 -1579 103 -3 102 -3 0 -330 0 -330 -102 -3 -103 -3 0
-1292 1 -1292 231 -255 c126 -140 241 -267 253 -282 13 -16 26 -28 29 -28 3 0
6 318 6 708 l0 707 344 382 344 381 -1 49 c-1 86 55 146 138 146 79 0 138 -59
138 -138 0 -112 -120 -176 -217 -115 -37 22 -38 22 -55 4 -10 -11 -161 -178
-335 -371 l-316 -353 0 -727 0 -728 311 -345 c171 -190 331 -366 355 -393 l45
-47 164 0 165 0 0 580 0 579 33 38 c17 20 119 133 225 251 l192 214 0 304 0
304 -75 0 -75 0 0 165 0 165 75 0 75 0 0 408 0 408 -34 12 c-45 17 -92 71
-106 123 -11 40 -9 56 15 135 5 16 -66 100 -384 455 l-391 434 0 142 0 143
-192 2 -193 3 0 400 0 400 193 3 192 2 0 320 0 319 -42 11 c-112 31 -150 170
-69 251 81 80 220 42 250 -67 18 -66 -13 -140 -69 -169 l-30 -16 0 -324 0
-325 188 -2 187 -3 0 -400 0 -400 -187 -3 -188 -2 0 -136 0 -135 386 -428 386
-429 31 18 c76 43 157 32 218 -29 100 -100 55 -264 -81 -301 l-40 -11 0 -404
0 -405 70 0 70 0 0 -165 0 -165 -70 0 -70 0 0 -824 c0 -822 0 -823 -21 -850
-12 -15 -113 -129 -225 -254 l-204 -227 0 -57 0 -58 583 0 582 0 438 486 437
486 0 232 0 232 -530 588 -530 588 0 1661 0 1662 -451 500 c-247 275 -457 507
-464 515 -13 12 -19 10 -47 -17 -48 -45 -76 -56 -138 -56 -79 0 -143 40 -180
113 -18 34 -17 129 2 165 19 34 62 77 98 95 34 18 129 17 165 -2 72 -38 109
-101 108 -185 l0 -63 467 -518 468 -519 4 -1245 4 -1245 28 -34 c16 -19 245
-274 510 -568 l481 -534 3 131 3 132 -39 35 c-77 69 -78 170 -2 239 73 65 84
48 -310 484 l-349 387 -1 293 0 292 -134 0 c-113 0 -135 2 -140 16 -3 9 -6
154 -6 323 0 225 3 310 12 319 8 8 54 12 140 12 l128 0 0 1300 0 1300 -110 0
-110 0 0 255 0 255 110 0 110 0 0 508 0 508 -35 12 c-72 27 -115 116 -94 194
32 122 186 163 275 74 86 -86 53 -232 -61 -270 l-40 -14 -3 -506 -2 -506 125
0 125 0 0 -255 0 -255 -125 0 -125 0 0 -450 c0 -247 2 -450 4 -450 3 0 187
203 410 451 l406 451 1 1196 c0 658 2 1271 5 1362 2 91 4 228 5 305 l0 140
274 304 275 304 0 366 0 367 -571 634 c-314 349 -581 646 -594 659 -19 20 -26
21 -45 11 -30 -16 -75 3 -90 39 -23 57 36 116 92 90 25 -11 48 -46 48 -73 0
-7 68 -89 152 -182 289 -321 971 -1079 989 -1099 19 -19 19 -18 19 77 l0 96
-582 647 c-582 646 -583 647 -617 641 -44 -7 -85 15 -101 54 -28 67 44 138
111 109 36 -14 63 -66 54 -102 -5 -19 69 -107 471 -552 262 -292 518 -576 568
-632 l91 -101 3 99 3 100 -588 654 c-496 552 -591 654 -610 650 -32 -7 -70 13
-83 45 -23 56 37 115 92 89 30 -13 51 -53 43 -80 -7 -21 -48 26 693 -796 244
-271 446 -493 448 -493 2 0 4 42 4 93 l0 92 -541 600 c-298 330 -561 622 -585
648 -31 35 -52 50 -76 52 -66 9 -95 82 -50 127 55 55 149 -5 122 -78 -11 -29
-90 62 744 -862 l426 -474 0 -1149 0 -1149 -280 -311 -280 -311 0 -1495 0
-1495 -114 -127 c-62 -69 -256 -283 -429 -476 l-316 -350 -1 -432 0 -433 163
0 c113 0 167 -4 175 -12 9 -9 12 -94 12 -319 0 -169 -3 -314 -6 -323 -5 -14
-30 -16 -175 -16 l-169 0 0 -283 0 -283 350 -390 c302 -336 350 -393 350 -420
0 -30 3 -32 46 -39 60 -9 119 -61 135 -118 24 -90 -41 -188 -135 -202 l-46 -7
0 -814 0 -813 -33 -38 c-54 -63 -757 -846 -795 -885 l-36 -38 842 0 842 0 0
234 0 234 146 162 146 162 -22 41 c-53 93 -17 218 76 273 181 106 386 -99 280
-280 -52 -89 -177 -127 -264 -82 -18 9 -37 16 -42 14 -5 -2 -70 -70 -144 -153
l-135 -150 -1 -227 0 -228 513 0 512 1 277 307 277 307 0 520 0 520 -75 85
c-69 77 -204 230 -866 980 -118 135 -380 432 -582 660 l-366 415 0 673 0 672
-145 0 -145 0 0 300 0 300 145 0 145 0 0 570 0 569 -152 3 -153 3 0 400 0 400
153 3 152 3 0 89 0 89 273 303 c149 166 368 408 484 538 l213 235 0 495 -1
495 -43 26 c-134 82 -134 286 0 368 l43 26 1 630 0 631 520 577 c286 317 525
577 530 577 7 0 10 295 10 828 l-1 827 -185 205 c-250 277 -216 248 -262 222
-169 -95 -382 3 -422 193 -23 110 27 228 123 292 253 169 561 -132 397 -390
l-28 -45 209 -232 209 -233 0 -418 c0 -231 4 -419 8 -419 5 0 164 174 355 386
l347 385 -1 565 -2 565 -26 32 c-14 17 -335 375 -713 795 l-688 765 -2 895 -3
895 -30 10 c-78 25 -128 117 -104 195 14 47 60 95 104 109 l30 10 3 1481 2
1482 -187 2 -188 3 0 400 0 400 400 0 400 0 0 -400 0 -400 -192 -3 -193 -2 0
-1481 0 -1480 33 -14 c75 -32 120 -119 97 -191 -15 -48 -54 -91 -97 -109 l-33
-14 0 -348 0 -348 709 -787 c390 -433 711 -795 715 -803 3 -9 6 -759 6 -1666
l0 -1649 -33 -37 c-18 -21 -134 -150 -258 -287 -123 -137 -277 -308 -341 -380
l-118 -131 0 -275 0 -275 -335 -373 -335 -372 0 -786 0 -785 475 -527 475
-527 0 -182 0 -183 143 0 c98 0 147 -4 155 -12 9 -9 12 -94 12 -319 0 -169 -3
-314 -6 -323 -5 -14 -28 -16 -155 -16 l-149 0 0 -323 0 -324 -148 -164 c-82
-90 -235 -260 -340 -378 l-192 -214 0 -127 0 -126 48 -13 c26 -6 57 -20 69
-30 32 -27 73 -91 73 -115 0 -18 9 -24 48 -35 154 -41 296 -161 369 -312 23
-48 49 -115 58 -150 9 -35 20 -81 26 -102 11 -43 5 -157 -9 -184 -5 -10 -15
-42 -21 -70 -6 -29 -30 -92 -53 -140 -59 -123 -158 -222 -280 -281 -48 -23
-91 -42 -96 -42 -5 0 -24 -14 -43 -31 -36 -32 -29 -32 -140 -13 l-36 6 -6 -53
c-4 -30 -7 -188 -7 -352 l0 -297 375 -417 375 -417 0 -148 0 -148 178 0 c125
0 182 -4 190 -12 9 -9 12 -94 12 -319 0 -169 -3 -314 -6 -323 -5 -14 -32 -16
-190 -16 l-184 0 0 -910 0 -910 80 0 80 0 0 484 0 483 340 378 340 378 0 583
0 583 33 38 c17 20 260 291 540 601 l507 564 0 184 0 184 -202 2 -203 3 0 400
0 400 203 3 202 2 0 350 0 350 -795 883 -795 882 0 968 0 967 -160 0 -160 0 0
415 0 415 160 0 160 0 1 103 0 102 415 459 414 459 0 379 0 378 -169 0 c-145
0 -170 2 -175 16 -3 9 -6 154 -6 323 0 225 3 310 12 319 8 8 62 12 175 12
l163 0 0 263 0 264 -38 11 c-133 40 -206 215 -143 345 27 56 90 113 143 129
l38 11 0 1836 0 1836 -450 500 -450 500 0 203 0 202 -169 0 c-145 0 -170 2
-175 16 -3 9 -6 154 -6 323 0 225 3 310 12 319 8 8 62 12 175 12 l163 0 0
1669 c0 1513 -1 1669 -16 1675 -9 3 -26 6 -38 6 -37 0 -142 58 -177 98 -89
101 -108 238 -50 356 56 115 159 179 286 179 127 0 230 -64 286 -179 90 -183
-11 -399 -210 -450 l-46 -11 -3 -1672 -2 -1671 133 0 c90 0 137 -4 145 -12 9
-9 12 -94 12 -319 0 -169 -3 -314 -6 -323 -5 -14 -28 -16 -145 -16 l-139 0 0
-189 0 -190 455 -506 455 -505 0 -1136 c0 -776 3 -1135 10 -1132 6 2 195 208
420 458 l410 455 0 448 c0 276 -4 447 -10 447 -5 0 -24 16 -43 35 -71 73 -71
178 1 249 19 20 39 36 44 36 5 0 7 671 6 1492 l-3 1491 -55 13 c-30 7 -112 13
-182 14 l-128 0 0 78 c0 73 -2 79 -34 115 -45 51 -91 147 -118 244 -29 109
-29 287 0 396 35 127 77 203 162 287 41 41 89 82 105 89 17 8 46 29 65 46 63
56 79 63 128 52 49 -10 281 6 311 23 10 5 28 6 41 3 28 -7 170 -82 186 -97 6
-6 35 -29 65 -50 58 -42 132 -122 159 -174 10 -17 22 -37 28 -44 9 -12 24 -52
93 -243 29 -80 38 -155 19 -155 -11 0 -53 -65 -56 -86 -6 -41 -42 -141 -75
-211 -22 -46 -42 -96 -46 -113 -3 -17 -10 -33 -14 -36 -5 -3 -9 -32 -9 -65 l0
-59 -134 0 c-90 0 -158 -5 -203 -16 -37 -9 -109 -17 -159 -18 l-92 -1 -6 -59
c-3 -32 -6 -696 -6 -1475 l0 -1417 58 -12 c144 -30 198 -195 96 -294 -35 -35
-82 -56 -126 -57 l-28 -1 0 -869 0 -868 -431 -479 c-237 -264 -435 -480 -440
-482 -5 -2 -9 -115 -9 -252 l0 -249 54 -11 c30 -6 73 -24 95 -40 179 -130 120
-404 -96 -450 l-53 -12 0 -259 0 -258 138 -3 137 -3 0 -330 0 -330 -137 -3
-138 -3 0 -385 0 -385 -415 -461 -415 -461 0 -94 0 -93 235 0 235 0 0 -415 0
-415 -235 0 -235 0 0 -960 0 -959 772 -858 c425 -472 783 -871 795 -887 23
-29 23 -31 23 -382 l0 -354 178 -2 177 -3 0 -400 0 -400 -177 -3 -178 -2 0
-193 c0 -105 0 -454 0 -773 l1 -582 -28 -33 c-15 -19 -259 -290 -541 -602
l-512 -569 0 -399 0 -399 90 0 90 0 0 -275 0 -275 -90 0 -90 0 0 -180 0 -180
485 0 485 0 0 115 0 115 660 732 659 733 1 263 0 262 -110 0 -110 0 0 285 0
285 110 0 110 0 0 303 0 302 -47 15 c-117 38 -117 172 0 210 l47 15 -3 865 -2
864 -35 10 c-19 6 -53 29 -76 51 -81 81 -80 199 0 280 23 22 57 45 76 51 l35
10 3 352 2 352 -192 2 -193 3 0 400 0 400 193 3 192 2 0 480 0 480 -138 152
c-76 84 -321 357 -545 606 l-407 452 0 235 0 235 -139 0 c-117 0 -140 2 -145
16 -3 9 -6 154 -6 323 0 225 3 310 12 319 8 8 55 12 145 12 l133 0 0 345 0
344 460 511 460 511 0 427 c0 235 -3 443 -6 462 -6 36 -6 36 -94 57 -93 22
-157 49 -227 95 -23 15 -46 28 -52 28 -6 0 -11 6 -11 13 0 6 -20 33 -44 60
-96 105 -149 265 -149 452 0 211 55 358 183 485 88 88 168 132 300 163 88 21
88 21 94 57 3 19 6 87 6 151 0 112 -1 117 -24 132 -13 9 -32 37 -41 62 -22 57
-10 109 35 152 l30 28 0 487 0 488 -197 2 -198 3 0 400 0 400 400 0 400 0 0
-400 0 -400 -182 -3 -183 -2 0 -480 0 -480 22 0 c46 0 106 -39 127 -84 26 -52
26 -69 2 -123 -21 -45 -78 -83 -126 -83 -24 0 -25 -2 -25 -63 0 -35 3 -98 6
-139 l7 -75 77 -7 c191 -16 328 -74 440 -186 73 -73 101 -117 151 -240 12 -30
33 -67 47 -82 22 -24 24 -33 19 -85 -22 -202 -96 -436 -161 -506 -12 -13 -52
-61 -90 -107 -39 -47 -74 -88 -79 -91 -5 -4 -28 -6 -51 -5 -22 2 -77 -5 -121
-15 -44 -10 -114 -21 -156 -25 l-76 -7 -7 -75 c-3 -41 -6 -251 -6 -466 l-1
-391 -459 -510 -460 -510 0 -337 0 -338 158 0 c110 0 162 -4 170 -12 9 -9 12
-94 12 -319 0 -169 -3 -314 -6 -323 -5 -14 -30 -16 -170 -16 l-164 0 0 -228 0
-227 486 -540 c268 -297 513 -570 545 -608 l59 -68 0 -484 0 -485 188 -2 187
-3 0 -400 0 -400 -188 -3 -187 -2 2 -352 3 -352 39 -10 c25 -5 55 -24 81 -51
54 -54 72 -118 54 -190 -16 -62 -79 -128 -135 -141 l-39 -10 -3 -877 -2 -878
22 -29 c28 -39 28 -91 0 -129 -22 -30 -22 -36 -22 -346 l0 -315 155 0 155 0 0
-285 0 -285 -155 0 -155 0 0 -269 0 -270 -642 -713 c-354 -392 -653 -727 -666
-743 -21 -26 -23 -38 -21 -127 l1 -98 1362 0 1361 0 -5 619 -5 620 -369 409
-369 410 -33 -10 c-74 -20 -163 34 -184 113 -41 150 149 259 259 148 55 -54
61 -124 18 -200 l-20 -36 318 -354 c175 -195 333 -370 351 -389 l34 -35 0 440
-1 440 -369 410 c-342 378 -374 410 -421 428 -83 31 -115 103 -80 182 17 37
29 50 67 67 41 18 52 19 87 8 108 -32 138 -151 57 -229 l-37 -35 369 -409 368
-409 0 -1094 0 -1094 70 0 70 0 0 1660 0 1660 -169 0 c-145 0 -170 2 -175 16
-3 9 -6 154 -6 323 0 225 3 310 12 319 8 8 62 12 175 12 l163 0 0 230 0 230
-135 0 -135 0 0 260 0 260 135 0 135 0 0 808 0 807 399 442 c381 423 398 444
405 489 13 96 80 158 171 158 97 0 169 -72 169 -169 0 -157 -183 -228 -293
-115 l-38 39 -194 -217 c-107 -119 -281 -312 -387 -429 l-192 -213 2 -191 3
-192 358 397 c252 280 357 404 357 420 0 108 110 197 207 166 124 -40 159
-187 64 -273 -67 -61 -151 -58 -221 9 l-35 33 -367 -407 -367 -407 -1 -577 0
-578 105 0 105 0 0 -260 0 -260 -105 0 -105 0 0 -230 0 -230 128 0 c86 0 132
-4 140 -12 9 -9 12 -94 12 -319 0 -169 -3 -314 -6 -323 -5 -14 -27 -16 -140
-16 l-134 0 0 -1660 0 -1660 875 0 c481 0 875 3 874 8 0 4 -135 156 -299 337
l-299 330 -1 237 0 238 -172 2 -173 3 0 330 0 330 173 3 172 2 0 284 0 284
-30 12 c-46 19 -74 65 -74 120 0 61 30 103 89 126 43 16 47 16 91 -1 78 -30
109 -104 75 -180 -16 -37 -29 -50 -66 -66 l-45 -20 0 -279 0 -279 138 -3 137
-3 3 -310 c1 -170 0 -320 -3 -332 -5 -22 -9 -23 -140 -23 l-135 0 0 -229 0
-229 311 -346 312 -346 401 0 402 0 3 1011 c2 946 2 1012 -15 1037 -9 14 -198
227 -419 472 -221 245 -429 475 -461 512 -54 61 -61 66 -89 60 -113 -25 -199
35 -199 138 0 84 60 144 144 144 54 0 87 -18 124 -67 26 -35 27 -114 3 -151
l-18 -27 160 -177 c87 -97 303 -337 480 -532 l320 -355 1 -1032 0 -1033 165 0
166 0 -3 71 -3 72 -45 13 c-97 29 -163 119 -163 224 0 105 66 195 163 224 l45
13 3 2292 2 2291 -139 0 c-117 0 -140 2 -145 16 -3 9 -6 154 -6 323 0 225 3
310 12 319 17 17 629 17 646 0 9 -9 12 -94 12 -319 0 -169 -3 -314 -6 -323 -5
-14 -30 -16 -176 -16 l-170 0 3 -1196 c2 -658 6 -1197 9 -1199 3 -2 129 134
280 302 151 168 334 371 407 452 l132 146 1 391 0 391 -56 12 c-113 26 -181
135 -153 246 18 71 79 129 153 146 l56 12 0 891 c0 827 1 893 17 916 10 14
119 138 243 275 124 138 242 269 263 293 l37 42 0 366 0 365 -53 57 c-30 31
-278 307 -552 612 -274 305 -503 561 -510 568 -9 10 -17 9 -42 -3 -58 -29
-117 7 -117 71 0 46 32 78 78 78 42 0 71 -24 83 -68 6 -23 169 -211 553 -639
300 -333 548 -606 553 -606 4 -1 7 39 7 89 l0 90 -561 623 -561 624 -28 -14
c-55 -27 -114 10 -114 73 0 46 32 78 78 78 44 0 71 -24 84 -73 7 -31 118 -159
551 -640 298 -330 544 -601 547 -601 2 0 4 44 4 98 l0 97 -541 600 c-297 330
-550 610 -562 623 -22 21 -24 22 -54 7 -89 -45 -171 72 -100 142 54 55 141 22
153 -58 5 -31 72 -110 447 -525 242 -269 487 -542 545 -607 58 -64 107 -117
109 -117 2 0 3 42 3 93 l0 92 -568 632 c-313 347 -582 647 -600 667 -17 19
-42 38 -56 42 -91 22 -75 158 19 158 47 0 79 -32 79 -78 0 -19 -8 -43 -17 -54
-16 -18 4 -42 514 -608 292 -324 562 -624 600 -667 l69 -77 0 -1148 0 -1147
-280 -310 -279 -310 -1 -512 0 -512 35 -17 c80 -38 127 -138 105 -226 -14 -55
-57 -110 -105 -132 l-35 -17 0 -790 0 -790 -192 -217 c-106 -119 -285 -315
-397 -437 -112 -121 -219 -239 -238 -262 l-34 -41 -2 -673 -2 -672 48 -12
c226 -57 226 -393 0 -450 l-48 -12 -1 -72 -2 -71 629 0 629 0 0 588 c0 324 -3
636 -6 694 l-7 106 -36 -10 c-20 -6 -49 -17 -64 -25 -26 -13 -32 -12 -70 10
-48 28 -278 107 -311 107 -28 0 -41 14 -105 112 -27 43 -71 97 -96 122 -25 25
-50 58 -57 73 -25 63 -37 179 -32 328 3 83 6 182 7 222 1 39 5 74 8 78 4 3 24
9 45 12 33 5 55 22 134 102 102 104 156 137 295 181 38 12 89 33 112 47 39 22
47 24 73 13 17 -7 44 -10 64 -6 34 7 34 7 38 66 3 58 2 61 -34 94 -35 33 -58
86 -58 131 1 35 37 102 69 126 l31 23 0 390 0 391 485 538 485 538 0 634 0
635 -154 0 c-131 0 -155 2 -160 16 -3 9 -6 154 -6 323 0 225 3 310 12 319 8 8
58 12 160 12 l148 0 0 365 0 365 38 43 c21 23 245 272 496 552 252 281 474
525 492 543 l34 32 0 818 0 817 -171 190 c-94 105 -174 190 -178 190 -3 0 -28
-13 -54 -29 -91 -54 -181 -55 -270 -2 -59 35 -110 110 -121 176 -26 166 128
320 294 294 66 -11 141 -62 176 -122 49 -81 53 -150 13 -248 l-12 -31 181
-201 182 -202 0 -1270 0 -1270 -335 -372 -335 -373 0 -787 0 -787 475 -528
475 -527 0 -506 0 -505 39 -1 c82 -3 145 -70 145 -154 0 -84 -63 -151 -145
-154 l-39 -1 0 -177 0 -178 -159 -177 c-87 -98 -240 -268 -340 -378 l-180
-200 -1 -552 0 -553 50 0 50 0 0 -255 0 -255 -50 0 -50 0 0 -290 0 -290 1244
0 1245 0 54 57 c30 32 71 78 91 101 l36 44 0 874 0 873 -39 11 c-51 14 -98 60
-111 112 -9 33 -8 50 5 90 13 41 14 53 3 66 -14 18 -866 964 -1225 1362 l-222
245 0 753 -1 752 -95 0 -95 0 0 280 0 280 95 0 95 0 0 120 0 120 -37 19 c-157
80 -157 302 0 382 l37 19 0 123 0 123 415 462 415 461 0 360 0 361 -217 2
-218 3 0 400 0 400 218 3 217 2 0 993 0 992 -50 43 c-93 80 -132 188 -110 300
15 75 49 132 110 184 l50 43 0 283 0 282 -139 0 c-117 0 -140 2 -145 16 -3 9
-6 154 -6 323 0 225 3 310 12 319 8 8 55 12 145 12 l133 0 0 399 0 399 -372
414 c-205 227 -410 455 -455 506 l-83 92 0 505 0 505 -230 0 -230 0 0 465 0
465 230 0 230 0 0 504 0 504 -36 6 c-50 10 -108 71 -123 129 -23 95 38 207
123 223 l36 6 0 594 0 594 -159 0 c-136 0 -160 2 -165 16 -3 9 -6 154 -6 323
0 225 3 310 12 319 17 17 629 17 646 0 9 -9 12 -94 12 -319 0 -169 -3 -314 -6
-323 -5 -14 -28 -16 -150 -16 l-144 0 2 -592 3 -592 35 -10 c86 -25 142 -130
119 -223 -14 -55 -69 -114 -119 -129 l-35 -10 -3 -502 -2 -502 215 0 215 0 0
-465 0 -465 -215 0 -215 0 0 -498 0 -499 455 -504 454 -504 1 -407 0 -408 158
0 c110 0 162 -4 170 -12 9 -9 12 -94 12 -319 0 -169 -3 -314 -6 -323 -5 -14
-30 -16 -170 -16 l-164 0 0 -275 0 -275 28 7 c92 24 214 -5 286 -68 58 -51 82
-91 102 -169 48 -190 -99 -381 -296 -384 -36 0 -77 3 -92 7 l-28 7 0 -985 0
-985 163 -2 162 -3 0 -400 0 -400 -162 -3 -163 -2 0 -369 0 -368 -107 -119
c-60 -66 -231 -257 -382 -424 -151 -168 -292 -324 -313 -347 l-38 -43 0 -104
0 -104 47 -7 c121 -18 196 -101 196 -215 0 -114 -75 -197 -196 -215 l-47 -7 0
-114 0 -114 170 0 170 0 0 -280 0 -280 -170 0 -170 0 0 -734 0 -734 27 -34
c35 -42 1365 -1522 1407 -1565 l31 -32 46 15 c122 41 236 -72 195 -195 -11
-35 -12 -49 -3 -61 7 -8 152 -170 322 -359 l310 -345 3 438 2 437 -312 346
c-172 191 -316 351 -319 356 -4 6 -27 3 -59 -8 -65 -22 -124 -8 -168 39 -64
67 -63 163 2 224 67 64 162 63 224 -2 46 -48 58 -102 37 -166 l-17 -52 25 -26
c14 -15 160 -178 326 -362 l301 -334 0 -814 0 -814 33 6 c17 3 49 2 70 -3 l37
-9 0 1549 0 1549 -164 0 c-140 0 -165 2 -170 16 -3 9 -6 154 -6 323 0 225 3
310 12 319 8 8 60 12 170 12 l158 0 0 173 -1 172 -399 444 -400 443 0 254 0
254 -27 6 c-102 21 -178 79 -216 162 -28 64 -28 160 0 224 38 83 114 141 216
162 l27 6 0 383 0 382 460 510 460 510 0 107 0 108 -37 24 c-88 56 -136 142
-136 241 0 99 48 185 136 241 l37 24 0 245 0 245 -340 0 -340 0 0 655 0 655
340 0 340 0 0 615 0 615 -202 2 -203 3 0 400 0 400 400 0 400 0 0 -400 0 -400
-177 -3 -178 -2 0 -615 0 -615 295 0 295 0 0 -655 0 -655 -295 0 -295 0 0
-238 0 -238 63 0 c157 -1 280 -123 280 -279 0 -156 -123 -278 -280 -279 l-63
0 0 -108 0 -108 -192 -212 c-105 -117 -228 -253 -273 -303 -45 -49 -165 -184
-268 -298 l-187 -208 2 -376 3 -376 43 -13 c97 -28 171 -110 192 -210 29 -138
-56 -278 -192 -318 l-43 -13 -2 -249 -3 -249 370 -410 c203 -225 374 -411 380
-413 7 -3 10 292 10 921 l0 925 369 409 c357 395 368 409 360 438 -21 71 29
156 102 175 109 30 210 -72 179 -179 -28 -99 -159 -141 -231 -75 -11 10 -21
15 -22 13 -2 -2 -164 -183 -360 -402 l-357 -397 2 -190 3 -189 335 371 c319
354 336 375 351 431 45 161 225 215 346 104 88 -81 92 -205 10 -294 -81 -88
-205 -92 -294 -10 -24 22 -46 50 -49 63 -4 13 -10 24 -14 24 -4 0 -60 -57
-123 -128 -63 -70 -216 -239 -341 -377 l-225 -250 0 -725 0 -725 139 -153
c135 -149 139 -154 146 -208 3 -30 5 -216 2 -414 l-4 -360 108 0 108 0 0 -210
0 -210 -110 0 -110 0 1 -1560 1 -1560 734 0 c404 0 734 2 734 4 0 2 -135 154
-300 338 l-300 333 0 242 0 243 -192 2 -193 3 0 400 0 400 193 3 192 2 0 235
0 235 -154 0 c-131 0 -155 2 -160 16 -3 9 -6 154 -6 323 0 225 3 310 12 319
17 17 629 17 646 0 9 -9 12 -94 12 -319 0 -169 -3 -314 -6 -323 -5 -14 -29
-16 -160 -16 l-153 0 0 -235 -1 -235 193 -2 192 -3 0 -400 0 -400 -192 -3
-193 -2 0 -221 c0 -148 4 -227 12 -242 6 -12 133 -157 281 -322 149 -165 285
-317 303 -337 l34 -38 400 0 400 0 0 704 0 704 -45 11 c-84 21 -146 115 -130
194 16 72 71 126 143 142 l32 7 0 142 0 142 -477 529 c-476 527 -478 529 -528
540 -62 14 -88 28 -114 61 -97 124 20 304 171 263 126 -34 164 -189 68 -280
l-38 -36 479 -531 479 -532 0 -153 0 -152 36 -20 c118 -63 118 -237 0 -300
l-36 -20 0 -707 0 -708 160 0 160 0 0 170 0 170 -100 0 -100 0 0 215 0 215
100 0 100 0 0 1311 0 1312 -42 -6 c-24 -4 -54 -9 -68 -13 -46 -12 -70 -6 -143
32 -158 82 -284 197 -346 315 -46 88 -111 272 -117 335 -5 44 -2 57 19 90 14
22 28 50 31 64 26 137 84 248 176 340 109 109 237 165 423 185 l67 7 0 229 0
228 -147 3 -148 3 -3 319 c-2 227 1 323 9 332 17 20 631 20 648 0 8 -9 11
-105 9 -332 l-3 -319 -164 -3 -163 -3 7 -227 c4 -125 9 -230 12 -234 2 -5 17
-8 32 -8 48 0 180 -38 249 -72 91 -44 206 -159 250 -250 53 -107 75 -206 75
-338 1 -101 -4 -133 -37 -265 -20 -82 -39 -157 -42 -166 -2 -9 -26 -26 -52
-38 -26 -12 -67 -40 -90 -61 -73 -65 -250 -136 -357 -144 l-30 -2 -6 -174
c-10 -265 -10 -422 -1 -418 5 1 105 111 222 243 225 253 433 484 538 598 l62
69 0 1493 0 1494 280 310 280 311 0 358 0 358 -27 36 c-16 20 -279 315 -586
656 l-559 619 -23 -23 c-13 -13 -31 -24 -40 -24 -21 0 -65 44 -65 65 0 19 44
65 62 65 42 -2 127 -89 649 -670 314 -349 575 -636 580 -638 5 -2 9 36 9 86
l0 90 -585 650 -586 650 -28 -14 c-73 -37 -141 60 -83 118 42 43 114 18 127
-43 4 -15 34 -59 69 -96 34 -37 285 -315 557 -618 273 -302 503 -556 512 -564
16 -12 17 -6 17 84 l0 97 -43 47 c-23 26 -284 316 -580 644 -295 328 -539 597
-541 597 -1 0 -17 -7 -34 -15 -57 -29 -116 7 -116 71 0 46 32 78 79 78 40 0
65 -20 80 -63 6 -16 267 -314 580 -662 l570 -633 3 93 c3 91 3 92 -30 130 -18
21 -280 312 -582 647 -419 464 -554 609 -570 607 -69 -6 -118 58 -92 121 29
70 131 66 155 -7 9 -26 9 -41 0 -61 -11 -24 -9 -30 23 -64 19 -20 261 -289
538 -597 277 -308 525 -583 552 -612 l48 -52 0 10906 0 10905 -57 -8 c-32 -5
-96 -9 -143 -9 -73 1 -93 5 -138 28 -67 35 -124 92 -159 159 -24 46 -27 64
-27 143 0 79 3 97 27 143 35 67 92 124 159 159 46 23 65 27 143 27 50 1 114
-3 143 -8 l52 -9 0 2082 0 2081 -24805 0 -24805 0 0 -7096z m6666 6782 c41
-40 44 -47 44 -96 0 -49 -3 -56 -44 -96 -40 -41 -47 -44 -96 -44 -49 0 -56 3
-96 44 -41 40 -44 47 -44 96 0 49 3 56 44 96 40 41 47 44 96 44 49 0 56 -3 96
-44z m40239 -409 c56 -27 83 -54 112 -111 80 -158 -38 -348 -217 -348 -95 0
-172 48 -217 136 -59 115 -12 259 102 319 76 39 146 41 220 4z m-32790 -665
c143 -100 143 -294 0 -394 -133 -94 -335 -9 -363 152 -36 205 195 360 363 242z
m20565 -114 c77 -39 114 -121 90 -201 -24 -80 -114 -138 -192 -123 -168 32
-199 257 -44 327 54 25 92 24 146 -3z m-7186 -459 c56 -26 53 -105 -4 -129
-80 -33 -135 90 -56 128 28 14 31 14 60 1z m-24523 -280 c63 -19 141 -98 159
-164 31 -109 10 -196 -66 -272 -56 -56 -106 -77 -184 -77 -78 0 -128 21 -184
77 -108 108 -108 266 -2 373 76 75 165 96 277 63z m39651 -1285 c123 -87 112
-260 -22 -332 -128 -68 -289 40 -277 186 11 149 179 231 299 146z m-32487 -44
c70 -26 78 -145 13 -193 -35 -26 -100 -27 -135 -1 -37 28 -55 85 -41 127 14
41 31 59 71 74 31 11 47 10 92 -7z m20447 -2096 c123 -87 112 -260 -22 -332
-128 -68 -289 40 -277 186 11 149 179 231 299 146z m4934 -20 c82 -33 134
-113 134 -204 0 -125 -95 -220 -220 -220 -26 0 -65 7 -86 16 -176 72 -178 332
-4 407 47 20 129 21 176 1z m-10746 -96 c77 -39 114 -121 90 -201 -24 -80
-114 -138 -192 -123 -168 32 -199 257 -44 327 54 25 92 24 146 -3z m-17625
-1383 c50 -49 15 -135 -55 -135 -41 0 -80 39 -80 80 0 41 39 80 80 80 19 0 40
-9 55 -25z m25548 -2387 c19 -23 23 -98 6 -129 -16 -31 -54 -41 -93 -25 -86
36 -87 135 -2 172 37 15 64 10 89 -18z m-5603 -420 c77 -39 114 -121 90 -201
-24 -80 -114 -138 -192 -123 -168 32 -199 257 -44 327 54 25 92 24 146 -3z
m9196 -122 c41 -40 44 -47 44 -96 0 -49 -3 -56 -44 -96 -40 -41 -47 -44 -96
-44 -28 0 -67 7 -84 15 -64 31 -87 141 -43 206 30 44 60 59 126 59 50 0 56 -3
97 -44z m-26960 -350 c41 -40 44 -47 44 -96 0 -49 -3 -56 -44 -96 -40 -41 -47
-44 -96 -44 -49 0 -56 3 -96 44 -41 40 -44 47 -44 96 0 49 3 56 44 96 40 41
47 44 96 44 49 0 56 -3 96 -44z m39779 -944 c143 -100 143 -294 0 -394 -133
-94 -335 -9 -363 152 -36 205 195 360 363 242z m-8263 -78 c123 -87 112 -260
-22 -332 -128 -68 -289 40 -277 186 11 149 179 231 299 146z m-27228 -185 c56
-26 53 -105 -4 -129 -80 -33 -135 90 -56 128 28 14 31 14 60 1z m31081 -989
c70 -26 78 -145 13 -193 -35 -26 -100 -27 -135 -1 -37 28 -55 85 -41 127 14
41 31 59 71 74 31 11 47 10 92 -7z m-35019 -2384 c41 -40 44 -47 44 -96 0 -49
-3 -56 -44 -96 -40 -41 -47 -44 -96 -44 -49 0 -56 3 -96 44 -41 40 -44 47 -44
96 0 49 3 56 44 96 40 41 47 44 96 44 49 0 56 -3 96 -44z m37849 -846 c70 -26
78 -145 13 -193 -35 -26 -100 -27 -135 -1 -37 28 -55 85 -41 127 14 41 31 59
71 74 31 11 47 10 92 -7z m-9739 -2296 c82 -33 134 -113 134 -204 0 -125 -95
-220 -220 -220 -26 0 -65 7 -86 16 -176 72 -178 332 -4 407 47 20 129 21 176
1z m-27691 -144 c70 -26 78 -145 13 -193 -35 -26 -100 -27 -135 -1 -37 28 -55
85 -41 127 14 41 31 59 71 74 31 11 47 10 92 -7z m12933 -2566 c215 -89 150
-414 -83 -414 -229 0 -298 315 -90 411 49 23 123 24 173 3z m-2864 -115 c56
-26 53 -105 -4 -129 -80 -33 -135 90 -56 128 28 14 31 14 60 1z m29134 -935
c215 -89 150 -414 -83 -414 -229 0 -298 315 -90 411 49 23 123 24 173 3z
m-12413 -3162 c143 -100 143 -294 0 -394 -133 -94 -335 -9 -363 152 -36 205
195 360 363 242z"/>
<path d="M2750 28175 l0 -365 365 0 365 0 0 365 0 365 -365 0 -365 0 0 -365z"/>
<path d="M1040 25415 l0 -295 295 0 295 0 0 295 0 295 -295 0 -295 0 0 -295z
m407 189 c94 -54 125 -182 69 -278 -105 -179 -379 -104 -379 104 0 162 167
256 310 174z"/>
<path d="M29330 22575 l0 -365 365 0 365 0 0 365 0 365 -365 0 -365 0 0 -365z"/>
<path d="M4128 22323 c-152 -170 -461 -513 -687 -763 l-410 -455 -1 -210 0
-210 29 30 c16 17 327 361 690 765 l661 735 0 207 c0 115 -1 208 -3 208 -1 0
-127 -138 -279 -307z"/>
<path d="M4313 22048 c-50 -57 -359 -400 -687 -763 l-595 -660 0 -270 -1 -270
44 50 c25 28 335 372 690 765 l645 715 0 268 c1 147 0 267 -2 267 -1 0 -43
-46 -94 -102z"/>
<path d="M40 20925 l0 -295 295 0 295 0 0 295 0 295 -295 0 -295 0 0 -295z
m407 189 c94 -54 125 -182 69 -278 -105 -179 -379 -104 -379 104 0 162 167
256 310 174z"/>
<path d="M1340 20688 l0 -164 386 -430 c212 -236 401 -445 420 -464 l34 -35 0
170 -1 170 -410 455 c-226 250 -414 457 -420 458 -5 2 -9 -63 -9 -160z"/>
<path d="M1 15658 l-1 -4958 90 0 90 0 0 1038 0 1038 288 319 c158 176 401
446 540 600 l252 280 0 448 0 447 -95 0 -95 0 0 190 0 190 95 0 95 0 0 268 -1
267 -459 510 -460 510 0 1892 0 1893 -164 0 c-122 0 -166 3 -169 13 -3 6 -6
-2219 -6 -4945z"/>
<path d="M1340 20263 l1 -188 417 -463 417 -463 3 191 2 191 -411 457 c-226
251 -415 459 -420 460 -5 2 -9 -79 -9 -185z"/>
<path d="M42210 19695 l0 -295 295 0 295 0 0 295 0 295 -295 0 -295 0 0 -295z
m407 189 c131 -75 129 -273 -3 -350 -138 -81 -307 17 -307 176 0 162 167 256
310 174z"/>
<path d="M30690 19485 l0 -295 155 0 155 0 0 50 c0 49 0 49 -37 56 -61 10
-120 50 -149 100 -74 125 2 283 149 308 34 6 37 9 37 41 l0 35 -155 0 -155 0
0 -295z"/>
<path d="M31031 19743 c0 -36 4 -40 52 -63 38 -19 59 -38 81 -73 64 -103 26
-234 -81 -287 l-52 -25 0 -52 -1 -53 125 0 125 0 0 295 0 295 -125 0 -125 0 1
-37z"/>
<path d="M3030 18604 l0 -205 346 -385 c191 -211 348 -384 350 -384 2 0 4 93
4 208 l-1 207 -137 151 c-75 82 -231 255 -345 382 -115 128 -211 232 -213 232
-2 0 -4 -93 -4 -206z"/>
<path d="M12260 18255 l0 -295 295 0 295 0 0 295 0 295 -295 0 -295 0 0 -295z
m407 189 c131 -75 129 -273 -3 -350 -138 -81 -307 17 -307 176 0 162 167 256
310 174z"/>
<path d="M3030 18070 l1 -265 75 -85 c42 -47 198 -221 347 -388 l272 -302 3
265 2 265 -321 358 c-177 196 -335 370 -350 387 l-29 30 0 -265z"/>
<path d="M29710 17907 l0 -204 693 -769 692 -768 3 207 2 208 -686 762 c-377
419 -690 764 -695 765 -5 2 -9 -81 -9 -201z"/>
<path d="M29710 17368 l1 -263 685 -760 c377 -418 690 -761 695 -763 5 -2 9
101 9 257 l0 261 -686 762 c-377 420 -690 765 -695 766 -5 2 -9 -109 -9 -260z"/>
<path d="M3771 16833 l0 -408 334 -370 335 -370 0 -805 0 -805 -475 -528 -475
-528 0 -754 0 -755 33 -14 c74 -30 109 -110 83 -187 l-15 -43 59 -65 c32 -36
162 -181 289 -321 l230 -255 0 -477 1 -478 183 -2 182 -3 0 -400 0 -400 -182
-3 -183 -2 0 -373 0 -373 -375 -416 -375 -417 0 -1558 1 -1558 539 -599 540
-598 0 -314 0 -314 105 0 105 0 0 -250 0 -250 -105 0 -105 0 0 -298 0 -299 37
-24 c53 -34 72 -89 50 -142 -10 -22 -30 -45 -52 -58 l-35 -21 0 -499 0 -499
198 0 197 0 3 1929 4 1930 -40 11 c-49 13 -97 64 -106 113 -4 22 -1 52 9 81
l16 46 -451 500 -450 501 0 119 0 119 -152 3 -153 3 0 330 0 330 153 3 152 3
0 560 0 560 853 946 c468 521 892 991 940 1044 l88 98 6 511 5 510 -155 0
c-132 0 -156 2 -161 16 -3 9 -6 154 -6 323 0 225 3 310 12 319 8 8 58 12 160
12 l148 0 0 684 0 685 -38 21 c-50 28 -75 71 -76 131 l-1 48 -430 478 -430
477 2 228 1 227 -121 3 -122 3 0 330 0 330 123 3 122 3 0 769 0 769 -332 369
c-183 202 -412 456 -508 564 -96 108 -178 197 -182 197 -5 1 -8 -182 -7 -406z"/>
<path d="M33380 16505 l0 -365 365 0 365 0 0 365 0 365 -365 0 -365 0 0 -365z"/>
<path d="M32357 15878 l-416 -463 -1 -163 c0 -113 3 -163 11 -160 6 2 195 208
420 458 l409 455 0 168 c0 92 -1 167 -3 167 -2 0 -190 -208 -420 -462z"/>
<path d="M32358 15477 l-417 -462 -1 -188 c0 -111 4 -187 9 -185 5 2 194 208
420 458 l410 455 1 193 c0 105 -1 192 -2 192 -2 0 -191 -208 -420 -463z"/>
<path d="M5670 15571 l0 -90 231 -258 c127 -142 244 -271 260 -288 l29 -30 0
95 0 95 -250 277 c-137 152 -254 279 -260 283 -7 4 -10 -24 -10 -84z"/>
<path d="M14940 14709 l-685 -761 -2 -212 -3 -211 84 90 c45 50 356 393 689
764 l607 673 0 209 c0 115 -1 209 -2 209 -2 0 -311 -343 -688 -761z"/>
<path d="M5670 15315 l1 -100 225 -250 c124 -137 239 -265 255 -282 15 -18 31
-33 34 -33 3 0 5 44 5 98 l-1 97 -230 255 c-126 140 -243 268 -260 285 l-29
30 0 -100z"/>
<path d="M5670 15059 l0 -95 252 -280 c138 -153 255 -280 260 -282 4 -2 8 37
8 87 l0 91 -88 98 c-49 53 -155 171 -237 262 -81 91 -158 176 -171 190 l-24
25 0 -96z"/>
<path d="M14937 14225 l-687 -764 2 -266 3 -265 687 762 688 763 0 268 c0 147
-1 267 -2 267 -2 -1 -312 -345 -691 -765z"/>
<path d="M2670 14305 l0 -365 175 0 175 0 0 365 0 365 -175 0 -175 0 0 -365z"/>
<path d="M3060 14305 l0 -365 170 0 170 0 0 365 0 365 -170 0 -170 0 0 -365z"/>
<path d="M4590 14235 l0 -295 105 0 105 0 0 60 c0 55 -2 61 -31 82 -17 13 -43
43 -57 67 -51 86 -25 208 57 269 27 19 31 29 31 67 l0 45 -105 0 -105 0 0
-295z"/>
<path d="M4830 14492 l0 -39 59 0 c46 0 69 -6 105 -27 179 -105 104 -379 -105
-379 l-59 0 0 -54 0 -53 175 0 175 0 0 295 0 295 -175 0 -175 0 0 -38z"/>
<path d="M6700 14035 l0 -365 365 0 365 0 0 365 0 365 -365 0 -365 0 0 -365z"/>
<path d="M31012 14213 c-44 -49 -202 -223 -351 -388 l-271 -300 0 -202 c0
-112 4 -203 9 -203 4 0 164 174 355 386 l346 385 0 205 c0 112 -2 204 -4 204
-3 0 -41 -39 -84 -87z"/>
<path d="M13140 13715 l0 -295 130 0 130 0 -1 53 0 52 -52 25 c-149 74 -149
286 0 360 48 23 52 27 52 63 l1 37 -130 0 -130 0 0 -295z"/>
<path d="M13440 13975 c0 -30 4 -35 28 -40 58 -12 117 -51 146 -99 61 -98 27
-230 -74 -282 -25 -13 -57 -26 -72 -29 -26 -5 -28 -9 -28 -55 l0 -50 145 0
145 0 0 295 0 295 -145 0 -145 0 0 -35z"/>
<path d="M30741 13433 l-350 -388 -1 -263 c0 -149 4 -262 9 -260 5 2 164 176
355 388 l346 385 0 262 c0 145 -2 263 -4 263 -3 0 -162 -174 -355 -387z"/>
<path d="M12560 13527 l0 -165 376 -418 c458 -509 453 -504 459 -504 3 0 5 74
5 165 l0 166 -403 447 c-222 246 -411 453 -420 461 -16 12 -17 2 -17 -152z"/>
<path d="M9770 13215 l0 -295 150 0 150 0 0 50 c0 46 -2 50 -27 55 -59 12
-118 51 -147 99 -61 98 -27 230 74 282 25 13 57 26 73 29 23 5 27 10 27 40 l0
35 -150 0 -150 0 0 -295z"/>
<path d="M10111 13473 c0 -36 4 -40 52 -63 38 -19 59 -38 81 -73 64 -103 26
-234 -81 -287 l-52 -25 0 -52 -1 -53 125 0 125 0 0 295 0 295 -125 0 -125 0 1
-37z"/>
<path d="M12560 13102 l0 -187 418 -464 417 -464 3 192 2 192 -112 123 c-62
68 -248 275 -413 459 -165 185 -303 336 -307 336 -5 1 -8 -83 -8 -187z"/>
<path d="M31590 12715 l0 -295 155 0 155 0 0 50 c0 49 0 49 -37 56 -61 10
-120 50 -149 100 -74 125 2 283 149 308 34 6 37 9 37 41 l0 35 -155 0 -155 0
0 -295z"/>
<path d="M31940 12973 c0 -35 4 -40 50 -65 33 -19 57 -42 76 -74 59 -100 24
-226 -76 -282 l-50 -27 0 -52 0 -53 120 0 120 0 0 295 0 295 -120 0 -120 0 0
-37z"/>
<path d="M43160 12715 l0 -295 125 0 125 0 0 53 0 52 -50 27 c-140 77 -140
279 0 356 46 25 50 30 50 65 l0 37 -125 0 -125 0 0 -295z"/>
<path d="M43450 12975 c0 -32 3 -35 38 -41 60 -10 119 -50 148 -100 74 -125
-2 -283 -148 -308 -38 -7 -38 -7 -38 -56 l0 -50 150 0 150 0 0 295 0 295 -150
0 -150 0 0 -35z"/>
<path d="M44880 12585 l0 -365 365 0 365 0 0 365 0 365 -365 0 -365 0 0 -365z"/>
<path d="M29838 12164 l-508 -563 0 -618 0 -618 51 -2 c68 -2 134 -43 173
-106 25 -40 30 -59 30 -112 0 -53 -5 -72 -30 -112 -39 -63 -105 -104 -173
-106 l-51 -2 0 -497 0 -497 -485 -538 -485 -538 0 -82 0 -83 228 -2 227 -3 0
-400 0 -400 -227 -3 -228 -2 0 -570 0 -570 135 0 135 0 0 -300 0 -300 -135 0
-135 0 0 -212 1 -213 262 -290 c144 -160 569 -632 945 -1048 l682 -758 0
-1008 0 -1008 -246 -274 c-136 -151 -258 -286 -272 -301 l-26 -28 501 0 501 0
1 910 2 910 -125 0 c-122 0 -126 1 -131 23 -3 12 -4 162 -3 332 l3 310 129 3
129 3 -7 141 -6 141 -94 101 c-51 55 -219 242 -374 415 l-282 313 -1 342 c-1
187 -4 352 -8 365 -6 22 -16 26 -78 37 -155 26 -260 77 -370 180 -26 24 -45
34 -61 31 -12 -2 -25 0 -28 5 -3 4 -9 6 -13 4 -4 -3 -14 18 -21 47 -8 29 -15
57 -17 62 -18 68 -42 251 -43 326 0 97 28 283 52 349 14 38 43 71 79 90 12 7
37 26 56 43 78 71 94 84 120 98 16 8 54 33 87 56 32 24 64 43 72 43 8 0 26 19
40 43 30 49 56 72 102 92 l32 14 0 138 1 138 339 375 339 375 1 318 0 317
-155 0 c-152 0 -155 0 -160 23 -3 12 -4 162 -3 332 l3 310 158 3 157 3 0 173
0 174 -475 528 -475 528 0 797 0 796 22 29 c13 16 163 185 335 376 l313 347
-2 409 -3 410 -507 -564z"/>
<path d="M6790 12265 l0 -295 135 0 135 0 0 55 c0 45 -3 55 -17 55 -34 0 -103
51 -129 96 -57 96 -25 223 70 279 23 14 50 25 59 25 13 0 17 9 17 40 l0 40
-135 0 -135 0 0 -295z"/>
<path d="M7102 12523 c3 -33 7 -38 34 -44 52 -10 102 -48 131 -96 69 -118 1
-276 -131 -302 -29 -6 -31 -9 -34 -59 l-3 -52 140 0 141 0 0 295 0 295 -141 0
-140 0 3 -37z"/>
<path d="M6230 11958 l1 -93 406 -450 c223 -247 410 -451 414 -453 12 -5 11
185 0 193 -9 5 -188 202 -635 698 -98 108 -180 197 -182 197 -2 0 -4 -42 -4
-92z"/>
<path d="M6230 11705 l0 -100 405 -450 c222 -247 409 -451 415 -453 16 -6 13
188 -4 202 -7 6 -181 198 -386 426 -205 228 -385 428 -401 445 l-29 30 0 -100z"/>
<path d="M14250 11445 l0 -210 343 -382 c188 -210 345 -382 350 -382 4 -1 7
91 7 204 l0 204 -326 363 c-180 200 -337 374 -350 388 l-24 25 0 -210z"/>
<path d="M6230 11449 l0 -96 413 -459 412 -458 3 92 3 93 -38 43 c-21 23 -200
222 -398 441 -198 220 -368 408 -377 420 -17 19 -17 16 -18 -76z"/>
<path d="M8048 11103 c-91 -98 -260 -283 -376 -412 l-212 -234 0 -571 0 -571
35 -28 c67 -53 66 -151 0 -204 l-35 -28 0 -960 0 -961 -535 -593 -535 -594 0
-228 0 -229 192 -212 c257 -285 486 -533 540 -586 l44 -42 95 -6 c227 -12 389
-88 501 -232 92 -119 129 -247 130 -449 0 -73 4 -135 8 -138 21 -13 -20 -119
-78 -200 -69 -98 -228 -240 -282 -252 -8 -2 -49 -3 -91 -3 l-76 1 -6 -283 c-4
-156 -7 -914 -7 -1686 l-1 -1402 51 0 50 0 0 1513 1 1512 228 255 c125 140
343 381 484 535 l256 280 0 270 1 270 -87 95 c-47 52 -146 162 -220 244 l-133
150 0 763 0 763 -159 0 c-136 0 -160 2 -165 16 -3 9 -6 154 -6 323 0 225 3
310 12 319 8 8 59 12 165 12 l153 0 0 396 0 395 450 500 450 500 0 259 0 259
-30 17 c-28 17 -60 67 -60 94 0 27 32 77 60 94 l31 17 -7 337 c-4 185 -9 340
-13 344 -3 4 -21 0 -38 -9 -31 -15 -35 -14 -90 14 -32 17 -71 33 -88 37 -53
13 -149 59 -190 91 -22 17 -47 35 -55 38 -61 29 -97 57 -117 92 -39 69 -75
245 -77 372 0 62 -2 113 -2 113 -1 0 -76 -80 -166 -177z"/>
<path d="M14250 10906 l0 -267 346 -385 c191 -211 348 -384 350 -384 2 0 4
119 4 264 l0 264 -331 369 c-182 202 -340 377 -350 388 -19 19 -19 14 -19
-249z"/>
<path d="M28183 10858 l-253 -281 0 -89 c0 -54 4 -88 10 -86 5 2 122 128 260
281 l250 278 0 89 c0 50 -3 90 -7 90 -5 -1 -122 -127 -260 -282z"/>
<path d="M28185 10609 l-250 -279 -3 -96 c-2 -71 0 -95 9 -92 7 2 124 128 260
279 l248 274 1 98 c0 53 -3 97 -7 96 -5 0 -120 -126 -258 -280z"/>
<path d="M5490 10585 l0 -295 140 0 140 0 0 50 c0 40 -4 52 -17 56 -145 41
-211 186 -140 306 27 47 75 84 125 97 22 6 28 14 30 44 l3 37 -140 0 -141 0 0
-295z"/>
<path d="M5802 10843 c3 -33 7 -38 34 -44 52 -10 102 -48 131 -96 69 -118 1
-276 -131 -302 -29 -6 -31 -9 -34 -59 l-3 -52 140 0 141 0 0 295 0 295 -141 0
-140 0 3 -37z"/>
<path d="M28323 10498 c-65 -73 -181 -202 -256 -286 l-137 -152 0 -84 c0 -45
3 -85 6 -89 3 -3 120 121 260 276 l254 281 0 93 c0 51 -2 93 -3 93 -2 0 -58
-60 -124 -132z"/>
<path d="M32570 10255 l0 -295 125 0 125 0 0 53 0 52 -50 27 c-33 19 -57 42
-76 74 -59 100 -24 226 76 282 46 25 50 30 50 65 l0 37 -125 0 -125 0 0 -295z"/>
<path d="M32860 10515 c0 -32 3 -35 38 -41 60 -10 119 -50 148 -100 74 -125
-2 -283 -148 -308 -38 -7 -38 -7 -38 -56 l0 -50 150 0 150 0 0 295 0 295 -150
0 -150 0 0 -35z"/>
<path d="M0 6920 c0 -2756 2 -3309 13 -3304 9 3 183 -183 460 -491 l447 -496
0 -112 1 -112 42 -20 c34 -16 46 -29 61 -67 19 -47 19 -49 0 -95 -15 -39 -27
-52 -61 -68 l-42 -20 -1 -322 0 -323 148 0 c102 0 152 -4 160 -12 9 -9 12 -94
12 -319 0 -169 -3 -314 -6 -323 -5 -14 -29 -16 -160 -16 l-154 0 0 -410 0
-410 290 0 290 0 0 1639 0 1640 -21 6 c-11 4 -27 22 -36 41 -15 31 -15 37 0
68 9 19 25 37 37 41 20 6 20 8 18 572 l-3 566 -30 10 c-78 25 -129 119 -105
194 7 21 17 44 23 51 7 9 4 19 -10 35 -11 12 -242 270 -514 572 -272 303 -536
596 -587 653 l-92 103 0 2019 0 2020 -90 0 -90 0 0 -3310z"/>
<path d="M14990 9675 l0 -410 266 -295 c147 -162 298 -330 335 -373 l69 -77 0
-803 0 -804 -197 -219 c-109 -121 -312 -348 -452 -504 -140 -157 -265 -297
-278 -311 -24 -26 -24 -30 -17 -131 l7 -105 26 4 c72 12 80 10 138 -28 36 -24
75 -41 102 -44 24 -3 49 -9 56 -13 18 -10 135 -184 169 -250 87 -174 91 -420
9 -606 -49 -112 -156 -224 -264 -279 -20 -10 -54 -34 -75 -53 -25 -22 -46 -33
-59 -30 -11 3 -39 8 -62 12 l-43 7 0 -56 c0 -30 -3 -62 -6 -70 -6 -16 53 -85
453 -530 l223 -248 0 -649 0 -650 138 0 c94 0 142 -4 150 -12 9 -9 12 -94 12
-319 0 -169 -3 -314 -6 -323 -5 -14 -28 -16 -150 -16 l-144 0 0 -269 0 -268
-375 -417 -375 -416 0 -60 0 -60 243 1 242 0 40 48 c22 26 324 362 670 746
347 385 746 827 887 984 l258 286 0 373 c0 228 -4 381 -10 392 -11 20 -57 37
-188 69 -128 31 -205 74 -292 161 -128 127 -183 274 -183 485 0 211 55 358
183 485 102 102 163 132 381 183 25 6 25 9 21 62 -5 56 -4 56 42 100 l46 45 7
388 6 389 -139 154 c-153 169 -758 842 -811 902 l-33 37 0 515 0 515 -154 0
c-131 0 -155 2 -160 16 -3 9 -6 154 -6 323 0 225 3 310 12 319 8 8 58 12 160
12 l148 0 0 483 0 484 -476 529 c-262 291 -491 545 -510 564 l-34 35 0 -410z"/>
<path d="M1150 9635 l0 -295 140 0 140 0 0 50 c0 40 -4 52 -17 56 -56 16 -110
54 -137 98 -72 115 -10 270 122 305 22 6 28 14 30 44 l3 37 -140 0 -141 0 0
-295z"/>
<path d="M1470 9890 c0 -34 3 -40 22 -40 12 0 41 -11 64 -25 95 -56 127 -183
70 -279 -28 -48 -95 -96 -134 -96 -20 0 -22 -5 -22 -55 l0 -55 135 0 135 0 0
295 0 295 -135 0 -135 0 0 -40z"/>
<path d="M3770 9265 l0 -365 180 0 180 0 0 365 0 365 -180 0 -180 0 0 -365z"/>
<path d="M4170 9265 l0 -365 165 0 165 0 0 365 0 365 -165 0 -165 0 0 -365z"/>
<path d="M43010 8855 l0 -365 200 0 200 0 0 365 0 365 -200 0 -200 0 0 -365z"/>
<path d="M43450 8855 l0 -365 145 0 145 0 0 365 0 365 -145 0 -145 0 0 -365z"/>
<path d="M5628 9022 c-68 -76 -467 -521 -888 -988 -421 -467 -780 -866 -798
-887 l-33 -38 3 -112 c2 -62 6 -112 9 -112 3 0 418 467 921 1037 1000 1134
928 1042 928 1176 0 34 -4 62 -9 62 -5 0 -65 -62 -133 -138z"/>
<path d="M5706 8842 c-27 -32 -112 -129 -190 -217 -403 -455 -1564 -1774
-1584 -1799 -19 -25 -22 -40 -22 -131 0 -56 3 -104 6 -107 5 -6 97 95 459 507
141 160 339 384 1045 1184 162 183 308 349 323 369 27 35 28 41 26 139 -1 57
-4 105 -8 107 -3 2 -28 -21 -55 -52z"/>
<path d="M41458 8393 c-216 -241 -444 -494 -505 -562 l-113 -125 0 -358 0
-357 153 -3 152 -3 3 -310 c1 -170 0 -320 -3 -332 -5 -23 -8 -23 -155 -23
l-150 0 0 -642 0 -643 -485 -538 -485 -538 0 -373 0 -374 44 -6 c136 -21 200
-174 113 -273 -36 -41 -81 -63 -128 -63 l-32 0 7 -57 c10 -86 31 -104 119
-102 55 1 72 -2 79 -15 22 -39 60 -66 92 -66 34 0 66 -25 66 -51 0 -24 35 -68
79 -100 23 -17 51 -50 63 -73 76 -147 76 -554 0 -702 -11 -22 -45 -59 -74 -82
-29 -22 -74 -61 -101 -85 -57 -54 -153 -103 -246 -125 -63 -15 -70 -20 -75
-46 -3 -16 -6 -145 -6 -288 l0 -259 87 -97 c294 -326 563 -624 605 -670 l49
-52 425 0 424 0 0 290 0 290 -185 0 -185 0 0 255 0 255 185 0 185 0 0 559 0
559 340 378 340 378 0 174 0 175 -35 34 c-67 65 -67 161 0 226 l35 34 0 502 0
502 -442 492 c-244 271 -458 509 -475 530 l-33 38 0 799 0 800 335 372 335
373 0 407 c0 225 -2 408 -4 408 -2 0 -181 -197 -398 -437z"/>
<path d="M5564 8382 c-106 -119 -521 -590 -923 -1046 l-731 -829 0 -134 c0
-79 4 -133 9 -131 5 2 424 473 930 1047 l921 1043 0 134 c0 74 -3 134 -7 134
-5 0 -94 -98 -199 -218z"/>
<path d="M1470 8273 l0 -261 37 -19 c104 -52 104 -174 0 -226 l-37 -19 0 -159
0 -160 496 -552 c274 -304 505 -561 515 -572 19 -19 19 -7 19 446 l0 464 -33
18 c-68 37 -91 130 -50 198 l21 34 -454 505 c-250 278 -468 518 -485 535 l-29
30 0 -262z"/>
<path d="M16890 8412 c0 -90 1 -93 33 -129 129 -147 479 -533 483 -533 2 0 4
42 4 93 l-1 92 -235 260 c-129 143 -246 271 -259 285 l-25 25 0 -93z"/>
<path d="M16890 8154 l0 -101 251 -279 c139 -153 256 -280 260 -282 5 -2 9 40
9 93 l0 96 -227 252 c-124 139 -241 268 -260 287 l-33 35 0 -101z"/>
<path d="M30350 7825 l0 -295 140 0 140 0 0 55 c0 50 -2 55 -22 55 -39 0 -106
48 -134 96 -57 96 -25 223 70 279 23 14 52 25 64 25 19 0 22 6 22 40 l0 40
-140 0 -140 0 0 -295z"/>
<path d="M30672 8083 c2 -30 8 -38 30 -44 132 -35 194 -190 122 -305 -27 -44
-81 -82 -136 -98 -14 -4 -18 -16 -18 -56 l0 -50 135 0 135 0 0 295 0 295 -136
0 -135 0 3 -37z"/>
<path d="M16890 7891 l0 -90 236 -263 c130 -145 247 -274 260 -288 l24 -25 0
96 0 96 -251 279 c-138 154 -255 281 -260 282 -5 2 -9 -37 -9 -87z"/>
<path d="M15730 7655 l0 -295 140 0 140 0 0 55 c0 50 -2 55 -22 55 -39 0 -106
48 -135 98 -56 96 -25 221 71 277 23 14 52 25 64 25 19 0 22 6 22 40 l0 40
-140 0 -140 0 0 -295z"/>
<path d="M16052 7913 c2 -30 8 -38 30 -44 132 -35 194 -190 122 -305 -27 -44
-81 -82 -136 -98 -14 -4 -18 -16 -18 -56 l0 -50 135 0 135 0 0 295 0 295 -136
0 -135 0 3 -37z"/>
<path d="M7269 7757 c-75 -83 -304 -336 -508 -562 l-371 -410 0 -167 c0 -93 4
-168 9 -168 4 0 236 253 515 562 l506 562 0 168 c0 92 -3 168 -7 168 -5 0 -69
-69 -144 -153z"/>
<path d="M13950 7355 l0 -365 145 0 145 0 0 365 0 365 -145 0 -145 0 0 -365z"/>
<path d="M14280 7355 l0 -365 200 0 200 0 0 365 0 365 -200 0 -200 0 0 -365z"/>
<path d="M28050 7285 l0 -365 135 0 135 0 0 365 0 365 -135 0 -135 0 0 -365z"/>
<path d="M28360 7285 l0 -365 210 0 210 0 0 365 0 365 -210 0 -210 0 0 -365z"/>
<path d="M27478 7084 l-408 -453 0 -91 c0 -61 3 -89 11 -85 5 4 190 207 410
451 l400 444 -3 93 -3 93 -407 -452z"/>
<path d="M6898 6935 l-508 -565 0 -176 c0 -97 4 -174 9 -172 5 2 236 256 515
565 l506 562 0 176 c0 96 -3 175 -7 175 -5 -1 -236 -255 -515 -565z"/>
<path d="M7700 6985 l0 -295 146 0 145 0 -3 52 c-3 50 -5 53 -34 59 -52 10
-102 48 -131 96 -69 118 -1 276 131 302 27 6 31 11 34 44 l3 37 -145 0 -146 0
0 -295z"/>
<path d="M8030 7240 c0 -31 4 -40 17 -40 34 0 103 -51 129 -96 57 -96 25 -223
-70 -279 -23 -14 -50 -25 -59 -25 -14 0 -17 -10 -17 -55 l0 -55 130 0 130 0 0
295 0 295 -130 0 -130 0 0 -40z"/>
<path d="M27758 7143 c-68 -76 -251 -279 -406 -451 l-283 -312 3 -100 3 -100
325 362 c179 199 362 403 407 452 l83 91 1 65 c1 36 3 80 5 98 1 17 -1 32 -6
32 -4 0 -63 -62 -132 -137z"/>
<path d="M39698 6967 l-258 -286 0 -90 c0 -50 3 -91 8 -90 6 0 327 355 470
519 l43 49 -3 92 -3 92 -257 -286z"/>
<path d="M49308 6970 l-258 -285 1 -95 0 -95 52 56 c142 154 453 502 460 515
4 7 6 53 5 101 l-3 88 -257 -285z"/>
<path d="M17930 6875 l0 -365 365 0 365 0 0 365 0 365 -365 0 -365 0 0 -365z"/>
<path d="M33560 6875 l0 -365 175 0 175 0 0 365 0 365 -175 0 -175 0 0 -365z"/>
<path d="M33950 6875 l0 -365 170 0 170 0 0 365 0 365 -170 0 -170 0 0 -365z"/>
<path d="M27783 6908 c-55 -62 -238 -266 -407 -453 l-306 -340 0 -95 0 -95 29
30 c16 17 154 170 306 340 153 171 315 350 359 399 141 156 136 147 136 242 0
46 -4 84 -8 84 -4 0 -53 -51 -109 -112z"/>
<path d="M39697 6714 l-257 -285 0 -95 c0 -56 4 -94 9 -92 6 2 123 128 260
282 l251 278 0 99 c0 55 -1 99 -3 99 -2 0 -119 -128 -260 -286z"/>
<path d="M49306 6718 l-255 -283 0 -98 c-1 -54 3 -97 7 -95 5 2 122 129 260
283 l252 279 0 98 c0 54 -2 98 -4 98 -2 0 -119 -127 -260 -282z"/>
<path d="M20980 6655 l0 -295 155 0 155 0 0 50 c0 49 0 49 -37 56 -61 10 -120
50 -149 100 -74 125 2 283 149 308 34 6 37 9 37 41 l0 35 -155 0 -155 0 0
-295z"/>
<path d="M21330 6913 c0 -35 4 -40 50 -65 33 -19 57 -42 76 -74 59 -100 24
-226 -76 -282 l-50 -27 0 -52 0 -53 120 0 120 0 0 295 0 295 -120 0 -120 0 0
-37z"/>
<path d="M40520 6655 l0 -295 140 0 140 0 0 50 c0 40 -4 52 -17 56 -56 16
-110 54 -137 98 -72 115 -10 270 122 305 22 6 28 14 30 44 l3 37 -140 0 -141
0 0 -295z"/>
<path d="M40840 6910 c0 -34 3 -40 22 -40 39 0 106 -48 134 -96 71 -121 5
-267 -138 -308 -14 -4 -18 -16 -18 -56 l0 -50 135 0 135 0 0 295 0 295 -135 0
-135 0 0 -40z"/>
<path d="M39698 6452 l-258 -287 0 -87 c0 -49 4 -88 8 -88 4 0 122 126 260
280 l253 280 -3 94 -3 94 -257 -286z"/>
<path d="M49415 6573 c-77 -86 -191 -212 -252 -280 l-113 -123 0 -91 c0 -50 4
-89 9 -87 5 2 122 129 260 282 l251 279 0 89 c0 48 -3 88 -7 88 -5 0 -71 -71
-148 -157z"/>
<path d="M49327 6223 l-277 -307 0 -1495 0 -1496 -435 -482 -435 -483 0 -595
0 -595 95 0 95 0 0 -215 0 -215 -95 0 -95 0 0 -170 0 -170 715 0 715 0 0 3265
c0 1796 -1 3265 -3 3265 -2 0 -128 -138 -280 -307z"/>
<path d="M2540 5770 l0 -400 130 0 130 0 0 -315 0 -315 -130 0 -130 0 0 -810
0 -810 -281 -310 -280 -311 16 -44 c14 -36 15 -50 5 -79 -13 -41 -48 -72 -90
-81 l-30 -7 0 -146 0 -147 29 -17 c87 -49 87 -167 0 -216 l-29 -17 0 -872 0
-873 315 0 315 0 0 1063 0 1063 304 339 c295 328 304 339 295 368 -12 44 6
101 41 131 l30 25 0 1241 0 1241 -312 349 c-172 192 -316 349 -320 349 -5 1
-8 -179 -8 -399z"/>
<path d="M8030 5969 l0 -130 176 -197 c97 -108 187 -208 200 -222 l24 -25 0
136 0 135 -195 217 c-108 119 -198 217 -200 217 -3 0 -5 -59 -5 -131z"/>
<path d="M3610 5685 l0 -295 135 0 135 0 0 48 0 49 -57 29 c-78 40 -116 100
-116 184 0 84 38 144 116 184 52 27 57 32 57 63 l0 33 -135 0 -135 0 0 -295z"/>
<path d="M3910 5945 c0 -30 4 -35 28 -40 58 -12 117 -51 146 -99 61 -98 27
-230 -74 -282 -25 -13 -57 -26 -72 -29 -26 -5 -28 -9 -28 -55 l0 -50 145 0
145 0 0 295 0 295 -145 0 -145 0 0 -35z"/>
<path d="M9898 5668 c-91 -101 -207 -230 -259 -288 -52 -58 -360 -400 -684
-760 -325 -360 -721 -801 -881 -980 -160 -179 -355 -395 -433 -480 l-141 -155
0 -187 c0 -104 2 -188 5 -188 4 0 447 490 1832 2029 l733 813 0 189 c0 104 -2
189 -4 189 -2 0 -77 -82 -168 -182z"/>
<path d="M38290 5535 l0 -295 295 0 295 0 0 295 0 295 -295 0 -295 0 0 -295z
m407 189 c131 -75 129 -273 -3 -350 -138 -81 -307 17 -307 176 0 162 167 256
310 174z"/>
<path d="M47880 5535 l0 -295 295 0 295 0 0 295 0 295 -295 0 -295 0 0 -295z
m407 189 c131 -75 129 -273 -3 -350 -138 -81 -307 17 -307 176 0 162 167 256
310 174z"/>
<path d="M8030 5635 l0 -140 163 -181 c89 -99 176 -197 194 -217 18 -20 35
-37 38 -37 3 0 5 62 5 138 l-1 137 -185 205 c-102 113 -192 212 -200 220 -12
12 -14 -4 -14 -125z"/>
<path d="M18010 5345 l0 -295 135 0 135 0 0 48 0 49 -57 29 c-78 40 -116 100
-116 184 0 84 38 144 116 184 52 27 57 32 57 63 l0 33 -135 0 -135 0 0 -295z"/>
<path d="M18322 5603 c3 -33 7 -38 34 -44 52 -10 102 -48 131 -96 69 -118 1
-276 -131 -302 -29 -6 -31 -9 -34 -59 l-3 -52 140 0 141 0 0 295 0 295 -141 0
-140 0 3 -37z"/>
<path d="M24850 5265 l0 -365 175 0 175 0 0 365 0 365 -175 0 -175 0 0 -365z"/>
<path d="M25240 5265 l0 -365 170 0 170 0 0 365 0 365 -170 0 -170 0 0 -365z"/>
<path d="M8030 5287 l0 -148 198 -219 197 -220 3 145 3 145 -187 207 c-103
115 -193 215 -200 223 -12 12 -14 -9 -14 -133z"/>
<path d="M32290 4865 l0 -365 185 0 185 0 0 365 0 365 -185 0 -185 0 0 -365z"/>
<path d="M32700 4865 l0 -365 160 0 160 0 0 365 0 365 -160 0 -160 0 0 -365z"/>
<path d="M26790 4665 l0 -295 120 0 120 0 0 54 c0 53 -1 54 -45 80 -28 17 -55
44 -71 72 -57 97 -25 223 71 280 41 24 45 29 45 65 l0 39 -120 0 -120 0 0
-295z"/>
<path d="M27070 4926 c0 -33 2 -35 43 -41 64 -10 123 -49 153 -101 75 -128 -4
-285 -153 -309 l-43 -7 0 -49 0 -49 155 0 155 0 0 295 0 295 -155 0 -155 0 0
-34z"/>
<path d="M10194 4848 c-28 -29 -339 -372 -690 -763 -351 -390 -764 -849 -917
-1018 l-278 -309 23 -36 c44 -71 20 -173 -50 -214 -16 -10 -48 -20 -70 -24
l-42 -7 0 -376 1 -376 32 36 c18 20 212 236 433 480 221 244 674 747 1008
1117 l606 673 0 435 c0 239 -1 434 -3 434 -1 0 -26 -24 -53 -52z"/>
<path d="M17450 4800 l0 -95 133 -146 c72 -80 256 -284 407 -452 151 -169 278
-307 282 -307 5 0 8 41 8 91 0 76 -3 93 -19 107 -10 10 -184 202 -386 427
-202 226 -380 423 -396 440 l-29 30 0 -95z"/>
<path d="M11100 4455 l0 -365 150 0 150 0 0 365 0 365 -150 0 -150 0 0 -365z"/>
<path d="M11440 4455 l0 -365 195 0 195 0 0 365 0 365 -195 0 -195 0 0 -365z"/>
<path d="M13803 4563 c-110 -120 -405 -446 -656 -726 l-457 -507 0 -235 0
-235 135 0 135 0 0 -245 0 -245 -135 0 -135 0 0 -431 0 -432 34 -37 c22 -25
36 -53 41 -81 7 -39 51 -91 501 -591 l494 -549 0 -124 0 -125 420 0 420 0 0
68 0 67 375 415 374 415 1 263 0 262 -159 0 c-136 0 -160 2 -165 16 -3 9 -6
154 -6 323 0 225 3 310 12 319 8 8 59 12 165 12 l153 0 0 643 0 642 -276 305
c-151 168 -304 337 -340 376 l-64 71 0 69 c0 38 -4 74 -8 81 -5 7 -30 12 -62
12 -64 -1 -119 11 -250 51 -52 16 -107 32 -121 35 -19 3 -33 19 -53 59 -15 29
-41 73 -58 96 -17 23 -46 73 -64 111 -18 38 -37 69 -42 69 -5 0 -99 -98 -209
-217z"/>
<path d="M28360 4553 l0 -102 198 -223 c108 -123 244 -277 302 -343 613 -697
1334 -1511 1341 -1513 6 -2 8 46 7 116 l-3 120 -885 983 c-487 540 -902 1001
-922 1023 l-37 41 -1 -102z"/>
<path d="M17450 4545 l0 -100 81 -90 c45 -50 228 -253 406 -452 179 -200 329
-363 334 -363 5 0 9 42 9 93 l-1 92 -132 146 c-118 130 -584 649 -665 739
l-31 35 -1 -100z"/>
<path d="M23630 4325 l0 -295 100 0 100 0 0 63 c0 59 -2 65 -30 85 -16 13 -40
41 -52 65 -44 84 -20 206 52 259 26 19 30 28 30 70 l0 48 -100 0 -100 0 0
-295z"/>
<path d="M23880 4580 c0 -38 1 -39 28 -34 16 3 45 1 65 -4 l37 -10 0 44 0 44
-65 0 -65 0 0 -40z"/>
<path d="M24050 4567 c0 -42 5 -58 21 -73 12 -10 31 -37 42 -59 40 -77 21
-193 -42 -249 -17 -16 -21 -31 -21 -88 l0 -68 85 0 85 0 0 295 0 295 -85 0
-85 0 0 -53z"/>
<path d="M45170 4465 l0 -145 125 0 c77 0 125 4 125 10 0 10 -237 280 -246
280 -2 0 -4 -65 -4 -145z"/>
<path d="M28360 4267 l0 -113 238 -270 c131 -148 543 -615 916 -1039 374 -423
683 -771 688 -773 4 -2 8 47 8 110 l0 113 -143 161 c-78 88 -275 311 -437 495
-860 976 -1252 1419 -1261 1424 -5 4 -9 -39 -9 -108z"/>
<path d="M17450 4287 l0 -89 96 -106 c52 -59 236 -265 407 -459 172 -194 316
-352 320 -352 4 -1 6 41 5 92 l-3 94 -370 409 c-203 224 -389 429 -412 454
l-43 45 0 -88z"/>
<path d="M44830 3985 l0 -295 150 0 150 0 0 50 c0 46 -2 50 -27 55 -59 12
-118 51 -147 99 -61 98 -27 230 74 282 25 13 57 26 73 29 23 5 27 10 27 40 l0
35 -150 0 -150 0 0 -295z"/>
<path d="M45171 4243 c0 -36 4 -40 52 -63 38 -19 59 -38 81 -73 64 -103 26
-234 -81 -287 l-52 -25 0 -52 -1 -53 125 0 125 0 0 295 0 295 -125 0 -125 0 1
-37z"/>
<path d="M23975 4139 c-16 -5 -46 -8 -65 -7 l-35 3 0 -50 0 -50 68 -3 67 -3 0
61 c0 33 -1 60 -2 59 -2 0 -16 -5 -33 -10z"/>
<path d="M28360 3952 l0 -142 637 -723 c351 -397 756 -857 902 -1022 145 -165
274 -311 287 -325 l24 -25 0 141 0 140 -396 449 c-218 248 -559 634 -758 859
-198 225 -432 491 -520 590 -87 100 -162 185 -167 191 -5 5 -9 -51 -9 -133z"/>
<path d="M32478 3832 c-91 -103 -322 -360 -512 -571 l-346 -384 0 -549 c0
-302 4 -548 9 -546 4 2 238 259 520 571 l511 568 0 550 c0 302 -3 549 -7 548
-5 0 -83 -84 -175 -187z"/>
<path d="M23871 2919 l-1 -1072 35 -34 c67 -65 67 -161 0 -226 l-35 -34 0
-546 0 -547 207 -230 207 -230 289 0 289 0 -73 81 c-41 45 -233 258 -426 473
l-353 391 0 1523 0 1522 -69 0 -70 0 0 -1071z"/>
<path d="M35210 3655 l0 -295 155 0 155 0 0 50 c0 49 0 49 -37 56 -61 10 -120
50 -149 100 -74 125 2 283 149 308 34 6 37 9 37 41 l0 35 -155 0 -155 0 0
-295z"/>
<path d="M35560 3913 c0 -35 4 -40 50 -65 33 -19 57 -42 76 -74 59 -100 24
-226 -76 -282 l-50 -27 0 -52 0 -53 120 0 120 0 0 295 0 295 -120 0 -120 0 0
-37z"/>
<path d="M2183 3552 l-302 -337 -1 -342 0 -343 25 -6 c13 -3 29 -4 34 -2 6 1
134 140 286 308 l275 305 0 378 c0 207 -3 377 -7 376 -5 0 -144 -152 -310
-337z"/>
<path d="M45170 2091 c0 -1399 2 -1560 16 -1571 38 -32 67 -102 67 -160 0 -58
-29 -128 -67 -160 -12 -10 -16 -34 -16 -106 l0 -94 125 0 125 0 0 1560 0 1560
-85 0 -85 0 0 210 0 210 85 0 85 0 0 55 0 55 -125 0 -125 0 0 -1559z"/>
<path d="M38984 3185 l-409 -455 -1 -85 c-1 -47 1 -87 6 -90 4 -2 54 48 111
112 57 65 240 268 407 452 l302 335 0 93 c0 51 -1 93 -3 93 -2 0 -188 -205
-413 -455z"/>
<path d="M48850 3468 c-286 -318 -649 -716 -660 -723 -13 -8 -14 -198 -1 -193
8 2 103 107 355 388 27 30 143 160 258 288 l209 232 -3 90 -3 90 -155 -172z"/>
<path d="M0 1795 l0 -1795 440 0 440 0 0 410 0 410 -149 0 c-127 0 -150 2
-155 16 -3 9 -6 154 -6 323 0 225 3 310 12 319 8 8 57 12 155 12 l143 0 0 319
0 320 -42 23 c-32 17 -47 34 -62 71 -20 47 -20 47 0 94 15 37 30 54 62 71 l42
23 0 102 0 102 -261 290 c-144 160 -342 379 -440 488 l-179 198 0 -1796z"/>
<path d="M26710 3228 l0 -177 500 -555 c275 -305 504 -557 510 -561 7 -4 10
52 10 165 l0 171 -492 547 c-271 301 -501 556 -510 567 -17 19 -17 11 -18
-157z"/>
<path d="M38986 2935 l-408 -455 -2 -95 c0 -52 2 -95 6 -95 3 0 98 102 210
227 112 126 294 328 406 451 l202 222 0 100 c0 55 -1 100 -2 100 -2 0 -187
-205 -412 -455z"/>
<path d="M48978 3361 c-13 -15 -124 -140 -248 -277 -124 -136 -294 -325 -379
-418 -84 -94 -157 -172 -162 -174 -14 -5 -12 -205 2 -200 6 2 193 206 415 453
l404 449 0 98 c0 54 -2 98 -4 98 -3 0 -15 -13 -28 -29z"/>
<path d="M48743 2837 c-145 -160 -330 -366 -412 -457 l-150 -165 -1 -92 c0
-51 2 -93 5 -93 6 0 -7 -13 453 498 l372 413 0 94 c0 52 -1 95 -2 95 -2 0
-121 -132 -265 -293z"/>
<path d="M39228 2938 c-206 -231 -324 -362 -505 -560 l-144 -157 3 -94 3 -94
228 258 c126 142 309 346 408 454 l179 197 0 89 c0 49 -2 89 -4 89 -3 0 -78
-82 -168 -182z"/>
<path d="M46040 2775 l0 -295 295 0 295 0 0 295 0 295 -295 0 -295 0 0 -295z
m407 189 c131 -75 129 -273 -3 -350 -138 -81 -307 17 -307 176 0 162 167 256
310 174z"/>
<path d="M26710 2982 c-1 -4 -1 -85 -1 -181 l0 -173 74 -82 c40 -44 262 -290
491 -546 230 -256 427 -474 437 -485 19 -19 19 -16 19 163 l0 182 -457 508
c-500 556 -563 624 -563 614z"/>
<path d="M5920 2733 l0 -102 461 -513 c254 -282 476 -529 495 -548 l34 -35 0
100 0 101 -481 534 c-264 294 -487 542 -495 550 -12 12 -14 0 -14 -87z"/>
<path d="M5920 2409 l0 -156 242 -269 c133 -148 345 -384 471 -524 126 -140
240 -266 253 -280 l24 -25 0 160 -1 160 -460 510 c-253 281 -475 526 -494 545
l-35 35 0 -156z"/>
<path d="M30490 2155 l0 -295 110 0 110 0 0 54 c0 55 -10 75 -50 96 -11 6 -32
32 -47 58 -38 65 -38 139 0 204 15 26 41 55 57 65 27 15 30 23 30 65 l0 48
-105 0 -105 0 0 -295z"/>
<path d="M30742 2413 l3 -36 53 -3 c72 -3 133 -41 169 -102 79 -134 -16 -303
-173 -306 l-54 0 0 -53 0 -53 170 0 170 0 0 295 0 295 -171 0 -170 0 3 -37z"/>
<path d="M5920 2051 l0 -143 490 -544 c270 -299 493 -544 495 -544 3 0 5 62 5
138 l0 137 -446 495 c-246 272 -468 520 -495 549 l-49 55 0 -143z"/>
<path d="M2577 2142 l-27 -28 0 -1057 0 -1057 175 0 175 0 0 921 0 920 -132
147 c-72 81 -139 155 -148 165 -15 16 -17 16 -43 -11z"/>
<path d="M15060 1825 l0 -295 146 0 145 0 -3 52 c-3 50 -5 53 -34 59 -132 26
-200 184 -131 302 29 48 79 86 131 96 27 6 31 11 34 44 l3 37 -145 0 -146 0 0
-295z"/>
<path d="M15390 2080 c0 -31 4 -40 17 -40 34 0 103 -51 129 -96 57 -96 25
-223 -70 -279 -23 -14 -50 -25 -59 -25 -14 0 -17 -10 -17 -55 l0 -55 130 0
130 0 0 295 0 295 -130 0 -130 0 0 -40z"/>
<path d="M16674 1668 c-164 -183 -569 -632 -898 -998 l-599 -665 108 -3 c59
-1 109 -1 110 0 2 3 802 912 1282 1457 l303 343 0 99 c0 54 -1 99 -3 99 -2 0
-138 -150 -303 -332z"/>
<path d="M44227 1964 l-28 -15 2 -975 3 -974 373 0 373 0 0 90 c0 85 -1 90
-25 106 -77 50 -102 181 -52 266 14 25 38 53 52 62 l25 16 0 346 0 345 -337
375 c-186 206 -342 374 -348 374 -5 -1 -23 -8 -38 -16z"/>
<path d="M45970 1565 l0 -365 175 0 175 0 0 365 0 365 -175 0 -175 0 0 -365z"/>
<path d="M46354 1915 c-4 -8 -4 -171 -2 -362 l5 -348 172 -3 171 -2 0 365 0
365 -170 0 c-142 0 -172 -2 -176 -15z"/>
<path d="M9190 1495 l0 -295 150 0 150 0 0 50 c0 46 -2 50 -27 55 -59 12 -118
51 -147 99 -61 98 -27 230 74 282 25 13 57 26 73 29 23 5 27 10 27 40 l0 35
-150 0 -150 0 0 -295z"/>
<path d="M9520 1757 c0 -31 5 -36 57 -63 78 -40 116 -100 116 -184 0 -84 -38
-144 -116 -184 l-57 -29 0 -49 0 -48 130 0 130 0 0 295 0 295 -130 0 -130 0 0
-33z"/>
<path d="M36400 1485 l0 -295 155 0 155 0 0 50 c0 49 0 49 -37 56 -61 10 -120
50 -149 100 -74 125 2 283 149 308 34 6 37 9 37 41 l0 35 -155 0 -155 0 0
-295z"/>
<path d="M36750 1743 c0 -35 4 -40 50 -65 33 -19 57 -42 76 -74 59 -100 24
-226 -76 -282 l-50 -27 0 -52 0 -53 120 0 120 0 0 295 0 295 -120 0 -120 0 0
-37z"/>
<path d="M16448 1138 c-287 -326 -620 -703 -740 -839 -119 -135 -227 -257
-238 -272 l-22 -28 105 3 105 3 661 749 661 750 0 113 c0 62 -2 113 -5 113 -2
0 -239 -267 -527 -592z"/>
<path d="M31258 1307 l-317 -352 -1 -477 0 -478 320 0 320 0 0 180 0 180 -165
0 -165 0 0 275 0 275 165 0 165 0 0 375 c0 206 -1 375 -2 375 -2 -1 -146 -159
-320 -353z"/>
<path d="M25888 1368 l-198 -220 0 -130 c0 -79 4 -128 10 -126 8 3 53 51 322
350 l78 88 0 130 c0 71 -3 130 -7 129 -5 0 -97 -99 -205 -221z"/>
<path d="M23813 1543 c-10 -4 -13 -168 -13 -774 0 -761 0 -769 20 -769 19 0
20 9 20 769 0 424 -3 772 -7 774 -5 2 -14 2 -20 0z"/>
<path d="M2940 760 l0 -760 55 0 55 0 0 708 0 707 -51 53 c-28 28 -52 52 -55
52 -2 0 -4 -342 -4 -760z"/>
<path d="M610 1155 l0 -295 135 0 135 0 0 55 c0 45 -3 55 -17 55 -9 0 -36 11
-59 25 -130 76 -130 274 0 350 23 14 50 25 59 25 13 0 17 9 17 40 l0 40 -135
0 -135 0 0 -295z"/>
<path d="M922 1413 c3 -33 7 -38 34 -44 90 -18 159 -104 159 -199 0 -95 -69
-181 -159 -199 -29 -6 -31 -9 -34 -59 l-3 -52 140 0 141 0 0 295 0 295 -141 0
-140 0 3 -37z"/>
<path d="M16380 763 c-327 -371 -612 -694 -633 -719 l-39 -44 125 0 124 0 95
108 c52 59 282 319 511 579 l416 471 2 136 c1 75 0 138 -2 140 -2 2 -272 -300
-599 -671z"/>
<path d="M24050 1152 l0 -193 148 -162 c81 -90 275 -305 432 -480 l285 -317
173 0 173 0 -28 34 c-15 18 -210 235 -433 482 -223 246 -470 520 -549 609 -78
88 -156 173 -172 190 l-29 30 0 -193z"/>
<path d="M12722 1267 l-32 -33 0 -483 0 -483 118 -133 117 -133 398 -1 397 -1
0 118 0 117 -451 500 c-247 275 -465 515 -482 533 l-33 32 -32 -33z"/>
<path d="M25890 1038 l-200 -223 0 -140 0 -140 34 35 c19 19 111 121 205 225
l171 190 0 138 c0 75 -2 137 -5 137 -2 0 -94 -100 -205 -222z"/>
<path d="M4940 675 l0 -295 130 0 130 0 0 55 c0 45 -3 55 -17 55 -34 0 -103
51 -129 96 -57 96 -25 223 70 279 23 14 50 25 59 25 13 0 17 9 17 40 l0 40
-130 0 -130 0 0 -295z"/>
<path d="M5242 933 c3 -33 7 -38 34 -44 90 -18 159 -104 159 -199 0 -95 -69
-181 -159 -199 -29 -6 -31 -9 -34 -59 l-3 -52 140 0 141 0 0 295 0 295 -141 0
-140 0 3 -37z"/>
<path d="M25887 691 l-197 -220 0 -141 c0 -81 4 -140 9 -138 5 1 97 101 205
220 l196 218 0 140 c0 77 -3 140 -8 140 -4 0 -96 -99 -205 -219z"/>
<path d="M18295 383 c-181 -201 -331 -370 -333 -375 -2 -4 66 -8 152 -8 l156
0 34 38 c18 20 101 113 184 206 l152 168 0 169 c0 93 -3 169 -7 169 -5 0 -156
-165 -338 -367z"/>
<path d="M39870 654 l0 -100 211 -239 c117 -132 227 -257 246 -278 l34 -38 94
3 95 3 -306 340 c-168 187 -321 356 -340 375 l-34 35 0 -101z"/>
<path d="M39870 375 l1 -120 112 -127 112 -128 104 0 c97 0 103 1 90 17 -11
14 -379 433 -410 468 -5 5 -9 -42 -9 -110z"/>
<path d="M23870 190 l0 -190 181 0 181 0 -83 93 c-47 50 -124 136 -173 190
-49 53 -92 97 -97 97 -5 0 -9 -85 -9 -190z"/>
<path d="M4940 170 l0 -170 130 0 130 0 0 170 0 170 -130 0 -130 0 0 -170z"/>
<path d="M18495 194 c-71 -80 -138 -156 -148 -170 l-19 -24 156 0 156 0 0 170
c0 94 -3 170 -7 169 -5 0 -66 -66 -138 -145z"/>
<path d="M39870 98 l0 -98 86 0 86 0 -54 61 c-29 34 -67 78 -85 98 l-32 36 -1
-97z"/>
<path d="M45090 159 c-19 -4 -50 -6 -67 -3 l-33 6 0 -81 0 -81 70 0 70 0 0 85
c0 47 -1 85 -2 84 -2 -1 -19 -5 -38 -10z"/>
<path d="M44100 60 l-52 -60 61 0 61 0 0 60 c0 33 -4 60 -9 60 -5 0 -32 -27
-61 -60z"/>
</g>
</svg>
