<?xml version="1.0" standalone="no"?>
<!DOCTYPE svg PUBLIC "-//W3C//DTD SVG 20010904//EN"
 "http://www.w3.org/TR/2001/REC-SVG-20010904/DTD/svg10.dtd">
<svg version="1.0" xmlns="http://www.w3.org/2000/svg"
 width="454.000000pt" height="232.000000pt" viewBox="0 0 454.000000 232.000000"
 preserveAspectRatio="xMidYMid meet">

<g transform="translate(0.000000,232.000000) scale(0.100000,-0.100000)"
fill="#000000" stroke="none">
<path d="M0 1160 l0 -1160 2270 0 2270 0 0 1160 0 1160 -2270 0 -2270 0 0
-1160z m848 479 c69 -14 94 -43 96 -111 1 -52 2 -53 32 -56 45 -4 108 29 198
103 44 36 82 63 85 59 6 -6 0 -11 -118 -107 -39 -32 -96 -88 -125 -125 -55
-69 -169 -242 -163 -249 2 -2 46 6 98 18 l94 22 119 114 c145 139 296 255 393
301 57 27 89 35 152 39 182 13 237 -63 171 -238 -23 -62 -36 -78 -317 -398
-133 -152 -247 -285 -254 -298 -29 -55 26 -69 119 -30 150 63 383 274 708 643
205 232 207 234 247 234 37 0 39 -1 25 -17 -215 -243 -714 -814 -725 -830 -8
-13 -13 -30 -9 -38 16 -44 114 11 259 146 48 45 90 79 93 76 8 -7 -204 -195
-253 -224 -47 -27 -100 -28 -116 -1 -16 24 6 86 58 163 l44 66 -40 -33 c-194
-158 -282 -210 -370 -216 -50 -4 -58 -2 -68 17 -15 27 0 88 36 144 13 21 120
148 236 281 117 132 231 264 253 291 70 84 96 152 78 200 -9 23 -58 45 -102
45 -36 0 -39 -2 -34 -25 7 -40 -5 -70 -53 -123 -52 -58 -176 -140 -273 -182
l-67 -29 30 -11 c96 -36 299 98 373 248 30 59 49 71 25 15 -38 -93 -143 -202
-236 -248 -65 -31 -145 -42 -187 -25 -22 9 -37 10 -57 2 -16 -6 -60 -20 -100
-32 l-72 -21 -81 -104 c-182 -235 -254 -365 -225 -410 37 -60 155 -5 358 168
32 27 60 47 63 45 7 -8 -188 -167 -254 -207 -73 -46 -149 -54 -182 -21 -20 20
-22 30 -17 86 7 98 70 219 180 347 27 32 47 60 44 63 -3 3 -43 -3 -90 -13
l-84 -18 -62 -77 c-126 -156 -352 -337 -485 -387 -63 -23 -165 -28 -184 -9 -7
7 -12 30 -12 53 0 141 267 329 560 396 l95 22 60 74 c33 41 102 119 153 174
68 72 87 96 67 89 -37 -14 -98 -12 -120 4 -14 10 -18 25 -16 69 2 74 -15 87
-119 87 -126 0 -225 -42 -279 -119 -44 -62 -40 -141 9 -166 65 -33 179 -10
271 56 17 12 32 19 35 17 7 -7 -65 -54 -120 -79 -65 -28 -161 -31 -199 -6 -40
26 -50 61 -37 118 23 94 121 170 245 188 85 12 88 12 143 0z m2582 4 c0 -5
-43 -30 -95 -57 -195 -101 -308 -215 -453 -460 -10 -17 83 5 125 30 52 30 79
68 110 152 22 62 23 63 18 24 -7 -52 -43 -128 -77 -159 -34 -32 -107 -63 -150
-63 -33 0 -39 -5 -64 -47 -110 -189 -294 -344 -473 -397 -117 -35 -281 -12
-310 42 -15 28 -14 74 2 95 27 37 90 15 74 -27 -7 -19 -53 -22 -60 -3 -3 8 -7
7 -12 -5 -22 -53 61 -107 165 -107 176 -2 339 113 498 351 l72 107 -38 18
c-47 23 -82 75 -82 123 0 55 53 152 112 205 64 57 189 119 294 145 118 29 344
50 344 33z m536 -19 c49 -23 61 -53 45 -112 -11 -41 -10 -48 5 -59 40 -29 80
-16 181 60 130 96 185 127 230 130 34 2 38 -1 41 -24 2 -20 -6 -34 -34 -59
-50 -43 -170 -100 -256 -120 l-70 -16 -94 -104 c-51 -57 -92 -106 -90 -108 9
-8 106 -3 126 8 12 6 24 9 27 6 13 -13 -85 -46 -136 -46 -54 0 -54 0 -149 -87
-52 -49 -121 -110 -153 -137 -32 -28 -57 -51 -55 -53 2 -2 39 6 82 18 92 26
184 30 208 10 18 -15 21 -57 7 -94 -5 -14 -37 -54 -70 -90 -34 -35 -61 -70
-61 -76 0 -19 48 -12 100 14 51 26 144 99 223 174 26 25 47 40 47 34 0 -17
-136 -137 -214 -190 -57 -38 -78 -47 -115 -47 -45 -1 -46 0 -49 33 -5 49 15
86 70 132 26 23 53 50 59 61 27 51 -55 63 -198 28 -113 -27 -137 -39 -218
-105 -97 -81 -213 -155 -241 -155 -34 0 -31 32 7 64 17 14 90 55 162 91 l132
66 148 155 c81 86 147 160 147 164 0 5 -15 12 -33 15 -30 6 -53 0 -121 -33 -5
-3 -5 1 -1 8 15 24 90 50 148 50 l58 0 109 92 c60 51 106 96 104 100 -3 4 -14
8 -25 8 -11 0 -33 7 -49 15 -25 13 -30 21 -29 53 0 20 4 46 8 57 20 48 -40 79
-150 77 -120 -3 -227 -55 -274 -136 -33 -57 -33 -105 1 -137 23 -21 35 -24
102 -24 91 1 137 21 213 92 27 25 49 41 49 36 0 -16 -71 -77 -125 -108 -61
-36 -174 -47 -224 -21 -102 53 -54 197 89 271 88 46 230 55 306 19z m-1056
-904 c0 -24 -26 -38 -42 -22 -8 8 -8 15 2 27 18 21 40 19 40 -5z"/>
<path d="M1624 1612 c-77 -27 -161 -81 -209 -135 -70 -77 -106 -170 -71 -183
18 -7 132 45 222 101 105 66 180 156 172 208 -4 29 -47 33 -114 9z"/>
<path d="M1246 1329 c-54 -55 -96 -103 -94 -105 2 -2 41 9 86 23 l82 27 0 38
c0 21 7 55 15 75 8 20 14 38 12 40 -2 2 -48 -42 -101 -98z"/>
<path d="M606 1080 c-246 -70 -473 -233 -493 -353 -20 -127 204 -68 391 104
61 55 177 193 209 248 22 38 21 38 -107 1z"/>
<path d="M3285 1629 c-187 -19 -345 -82 -449 -180 -112 -104 -147 -215 -88
-278 43 -47 55 -43 117 34 79 99 219 239 291 291 34 24 102 67 150 94 49 27
82 49 74 48 -8 0 -51 -4 -95 -9z"/>
<path d="M4367 1607 c-58 -29 -240 -158 -233 -165 2 -1 39 9 82 22 111 35 244
118 244 152 0 25 -31 22 -93 -9z"/>
</g>
</svg>
