<?xml version="1.0" standalone="no"?>
<!DOCTYPE svg PUBLIC "-//W3C//DTD SVG 20010904//EN"
 "http://www.w3.org/TR/2001/REC-SVG-20010904/DTD/svg10.dtd">
<svg version="1.0" xmlns="http://www.w3.org/2000/svg"
 width="882.000000pt" height="265.000000pt" viewBox="0 0 882.000000 265.000000"
 preserveAspectRatio="xMidYMid meet">

<g transform="translate(0.000000,265.000000) scale(0.100000,-0.100000)"
fill="#000000" stroke="none">
<path d="M10 1335 l0 -1315 4405 0 4405 0 0 1315 0 1315 -4405 0 -4405 0 0
-1315z m2145 909 c26 -13 47 -36 63 -65 35 -66 28 -146 -26 -271 -42 -98 -46
-131 -20 -165 43 -54 194 8 263 107 27 38 45 51 45 30 0 -5 -27 -38 -61 -74
-96 -103 -179 -131 -250 -83 -81 54 -86 130 -19 279 45 99 55 163 30 193 -29
35 -91 55 -170 55 -165 0 -305 -65 -451 -210 -77 -76 -104 -110 -135 -173 -33
-69 -38 -90 -42 -167 -5 -107 7 -148 60 -206 51 -55 117 -79 202 -71 102 8
169 40 252 120 41 38 77 67 81 63 12 -12 -111 -120 -173 -152 -152 -80 -294
-67 -387 35 -43 47 -59 102 -59 191 2 131 55 245 170 363 105 108 216 177 342
211 81 23 233 17 285 -10z m2017 -41 c66 -23 123 -74 155 -137 21 -40 27 -70
31 -136 9 -186 -31 -264 -387 -740 -152 -203 -186 -279 -161 -355 14 -41 60
-75 102 -75 46 0 130 38 198 89 183 138 433 448 795 985 l160 238 78 3 c42 1
77 1 77 -2 0 -3 -33 -51 -74 -107 -314 -437 -552 -836 -615 -1035 -29 -89 -28
-178 2 -222 68 -102 216 -90 346 27 41 37 53 44 49 28 -5 -21 -5 -21 24 -5 25
14 27 17 12 26 -36 21 -96 80 -111 108 -21 41 -20 120 3 154 26 41 45 52 86
53 66 0 92 -77 43 -125 -42 -43 -105 -29 -105 22 0 13 -4 23 -10 23 -15 0 -12
-73 5 -112 64 -154 357 -190 575 -71 90 48 186 130 257 216 67 80 213 290 213
304 0 6 -11 15 -24 21 -40 18 -96 73 -119 116 -31 59 -31 182 1 247 70 143
222 215 591 279 169 30 179 33 305 95 123 62 192 81 184 53 -5 -18 -119 -73
-206 -99 -57 -18 -87 -35 -141 -81 -123 -104 -260 -284 -395 -519 -52 -91 -62
-115 -49 -118 29 -6 137 20 191 47 72 35 155 125 178 194 16 45 19 49 22 26 7
-61 -90 -185 -185 -235 -61 -32 -139 -53 -201 -53 -36 0 -38 -2 -76 -76 -61
-119 -111 -187 -190 -261 -81 -75 -194 -147 -299 -188 l-68 -27 79 -32 c98
-40 230 -127 300 -198 52 -53 92 -105 92 -120 0 -5 -25 -8 -56 -8 l-57 0 -99
104 c-109 116 -165 161 -256 206 -60 30 -63 30 -134 19 -80 -13 -225 -7 -275
11 -38 14 -70 0 -124 -55 -40 -39 -64 -108 -53 -151 8 -32 28 -26 32 9 4 34
32 50 66 37 30 -11 46 -38 46 -77 0 -39 -17 -53 -60 -53 -81 0 -129 115 -81
195 11 20 21 38 21 40 0 2 -20 -9 -45 -26 -99 -67 -207 -77 -284 -26 l-40 26
16 -52 c8 -28 28 -85 44 -125 16 -40 29 -75 29 -77 0 -3 -20 -5 -46 -5 -45 0
-45 0 -68 53 -37 82 -45 149 -42 347 2 213 10 247 103 430 29 57 49 100 45 95
-5 -6 -43 -55 -84 -110 -140 -185 -292 -341 -414 -422 l-53 -35 62 -41 c66
-44 247 -219 287 -277 13 -19 -18 9 -69 62 -92 97 -218 206 -270 233 -24 12
-34 12 -81 -2 -42 -12 -63 -13 -99 -5 -25 6 -50 7 -55 2 -4 -4 -11 -29 -13
-54 -7 -55 13 -114 69 -202 21 -34 38 -64 38 -68 0 -4 -23 -6 -52 -4 -51 3
-52 4 -77 53 -20 38 -27 68 -29 130 -3 71 0 86 23 129 24 45 25 50 9 67 -45
50 -55 151 -24 250 25 80 81 168 264 412 237 317 276 391 276 519 -1 107 -36
160 -135 203 -87 39 -299 17 -430 -44 l-60 -28 35 -15 c46 -21 96 -74 113
-122 11 -31 20 -41 53 -52 44 -15 78 -52 95 -103 18 -53 5 -185 -24 -263 -79
-209 -283 -441 -436 -499 -209 -78 -392 15 -432 219 -23 122 12 290 88 422 52
88 235 272 341 341 68 44 79 55 60 58 -39 6 -130 -19 -207 -57 -95 -46 -222
-165 -295 -276 -29 -44 -110 -188 -179 -318 -70 -131 -146 -268 -171 -305
-102 -155 -233 -279 -356 -337 l-65 -31 55 -7 c114 -16 248 13 335 72 54 37
180 170 235 249 24 34 46 58 48 52 4 -12 -94 -143 -168 -224 -29 -32 -81 -76
-116 -99 l-63 -42 47 -27 c26 -15 74 -56 107 -91 l60 -63 -55 52 c-77 72 -168
126 -200 117 -14 -4 -65 -9 -114 -13 l-89 -6 54 -35 c69 -44 176 -150 222
-220 21 -30 37 -58 37 -62 0 -5 -19 -8 -43 -8 l-42 0 -55 87 c-62 100 -125
172 -188 215 -49 33 -92 38 -227 23 -58 -6 -73 -5 -83 8 -23 28 20 40 117 34
82 -5 89 -4 146 26 115 62 181 146 321 413 35 66 64 124 64 127 0 4 -90 7
-199 7 l-200 0 -32 -57 c-135 -241 -264 -362 -504 -479 -60 -29 -103 -53 -94
-54 26 0 175 -76 256 -131 77 -52 191 -158 213 -198 10 -20 8 -21 -44 -21 -54
0 -56 1 -102 52 -116 129 -213 215 -284 253 l-73 38 -98 -13 c-99 -13 -215 -9
-264 10 -68 26 -167 -90 -153 -180 5 -35 24 -35 31 -1 10 48 74 54 98 8 17
-31 13 -79 -7 -94 -46 -34 -115 1 -135 67 -21 71 10 138 96 206 15 11 17 17 7
21 -28 11 -80 64 -96 97 -34 71 -13 162 44 191 39 20 66 19 90 -5 45 -45 9
-130 -56 -130 -33 0 -44 13 -44 51 0 10 -4 19 -10 19 -18 0 -11 -103 10 -137
22 -36 75 -73 135 -94 51 -17 203 -17 275 0 184 44 348 188 539 474 78 117 87
107 -94 107 -121 0 -156 3 -153 13 4 9 49 13 171 15 l166 2 58 93 c143 227
294 399 422 482 83 54 160 90 169 79 4 -3 2 -9 -5 -11 -6 -2 -39 -21 -72 -41
-124 -75 -220 -196 -370 -464 -39 -71 -71 -130 -71 -133 0 -3 91 -4 201 -3
l202 3 53 88 c151 247 315 424 501 539 96 59 183 89 292 98 63 6 112 18 181
45 52 20 124 43 160 51 81 17 195 11 262 -13z m3673 14 c110 -34 169 -104 192
-230 23 -128 33 -158 63 -189 54 -54 71 -46 237 121 183 184 275 242 313 196
21 -25 3 -62 -67 -135 -85 -91 -180 -162 -268 -201 l-70 -31 -60 -111 c-137
-256 -249 -383 -420 -479 -72 -41 -177 -84 -228 -93 -52 -10 -46 -21 16 -28
64 -6 169 -52 218 -94 72 -64 103 -174 80 -282 -27 -129 -108 -242 -247 -347
-227 -171 -457 -249 -636 -215 -163 32 -259 153 -213 269 37 92 155 97 155 6
0 -46 -8 -63 -42 -80 -39 -20 -80 -1 -89 41 l-6 30 -7 -26 c-4 -15 -2 -46 4
-70 24 -89 133 -150 270 -150 124 0 246 40 353 118 58 41 207 182 207 195 0 4
-35 26 -77 47 -43 22 -71 40 -63 41 9 0 20 -4 25 -9 8 -8 126 -51 139 -51 5 0
66 94 66 103 0 3 -24 -3 -52 -13 -29 -10 -73 -21 -98 -24 l-45 -6 57 19 c85
28 125 57 158 115 25 42 30 62 30 116 0 129 -64 210 -196 246 -58 15 -74 16
-123 5 -119 -27 -155 -32 -179 -26 -62 15 50 55 155 55 56 0 161 51 259 126
87 66 210 193 329 339 49 61 113 138 142 171 l53 62 -48 6 c-68 10 -143 50
-170 90 -28 42 -52 125 -52 186 0 50 -27 116 -56 141 -72 61 -225 51 -379 -25
-211 -105 -426 -335 -508 -546 -38 -97 -48 -231 -23 -307 33 -100 121 -157
241 -156 136 1 266 71 403 218 130 139 191 263 199 400 5 94 -11 135 -66 172
-76 51 -195 10 -311 -106 -200 -201 -276 -468 -145 -511 36 -12 48 -30 20 -30
-29 0 -74 29 -102 67 -26 33 -28 44 -28 123 0 80 3 92 39 166 53 107 189 245
291 295 61 30 79 34 147 34 83 0 110 -12 152 -69 18 -24 21 -42 21 -129 -1
-112 -18 -170 -86 -284 -46 -76 -179 -216 -263 -274 -157 -111 -327 -129 -450
-48 -84 56 -128 155 -129 289 0 209 133 415 393 608 104 77 261 149 360 165
55 9 177 6 215 -6z m-1430 -1288 c14 -42 -27 -109 -82 -138 -36 -18 -36 -18
-11 -24 14 -4 40 -23 57 -43 26 -29 31 -43 29 -72 -3 -32 -7 -37 -31 -40 -33
-4 -97 36 -117 72 -16 30 -16 79 -1 84 9 3 7 10 -5 23 -27 30 -11 81 38 123
56 48 111 55 123 15z m956 -385 c38 -8 69 -20 69 -24 0 -11 -117 -3 -172 11
-21 6 -38 14 -38 19 0 15 62 12 141 -6z m-3885 -43 c17 -11 16 -11 -6 -5 -14
4 -54 11 -90 15 l-65 8 71 -3 c39 -2 79 -8 90 -15z m-241 -13 c-11 -6 -32 -20
-47 -30 -16 -11 -28 -17 -28 -14 0 8 73 56 85 56 5 0 1 -6 -10 -12z"/>
<path d="M3553 2032 c-86 -65 -231 -211 -282 -285 -50 -73 -107 -194 -126
-267 -24 -91 -25 -222 -2 -282 26 -68 93 -124 164 -138 147 -31 307 49 450
225 128 157 192 294 201 426 7 118 -24 181 -96 195 -30 6 -32 5 -32 -22 -1
-67 -26 -117 -86 -171 -69 -62 -219 -142 -235 -126 -7 7 4 15 36 27 25 10 72
38 106 62 l60 45 -23 18 c-18 15 -22 28 -22 61 2 53 27 88 85 118 49 25 52 42
19 97 -21 34 -86 75 -118 75 -11 0 -56 -26 -99 -58z"/>
<path d="M6386 1998 c-143 -38 -271 -86 -341 -129 -202 -122 -276 -264 -210
-403 16 -32 76 -86 97 -86 4 0 27 30 51 68 122 187 310 397 460 513 49 38 81
68 70 68 -10 -1 -67 -15 -127 -31z"/>
<path d="M3748 1894 c-38 -20 -35 -34 7 -34 19 0 35 4 35 9 0 5 3 16 6 25 8
20 -12 20 -48 0z"/>
<path d="M8555 2081 c-72 -41 -308 -291 -275 -291 19 0 110 48 160 85 77 56
192 183 188 207 -4 31 -17 31 -73 -1z"/>
</g>
</svg>
