<?xml version="1.0" standalone="no"?>
<!DOCTYPE svg PUBLIC "-//W3C//DTD SVG 20010904//EN"
 "http://www.w3.org/TR/2001/REC-SVG-20010904/DTD/svg10.dtd">
<svg version="1.0" xmlns="http://www.w3.org/2000/svg"
 width="512.000000pt" height="512.000000pt" viewBox="0 0 512.000000 512.000000"
 preserveAspectRatio="xMidYMid meet">

<g transform="translate(0.000000,512.000000) scale(0.100000,-0.100000)"
fill="#FFFFFF" stroke="none">
<path d="M1060 5102 c-36 -9 -87 -30 -115 -46 -74 -42 -852 -824 -888 -892
-60 -114 -57 -14 -57 -1962 0 -1767 0 -1783 20 -1822 13 -26 34 -47 60 -60 39
-20 56 -20 1542 -20 l1503 0 80 -60 c141 -106 304 -179 480 -216 121 -25 346
-26 465 -1 485 103 844 461 947 947 12 60 18 128 18 230 0 257 -59 452 -200
666 -202 305 -535 499 -912 530 l-83 7 0 1299 c0 1282 0 1299 -20 1338 -13 26
-34 47 -60 60 -39 20 -55 20 -1377 19 -1226 0 -1343 -2 -1403 -17z m2560
-1512 l0 -1229 -57 -17 c-231 -67 -481 -251 -627 -462 l-58 -82 -929 0 c-912
0 -931 0 -969 -20 -45 -23 -80 -80 -80 -131 0 -49 38 -106 85 -129 40 -20 62
-20 909 -20 821 0 867 -1 862 -17 -11 -41 -26 -133 -32 -205 l-6 -78 -850 0
c-831 0 -850 0 -888 -20 -45 -23 -80 -80 -80 -130 0 -50 35 -107 80 -130 38
-20 57 -20 909 -20 l869 0 21 -67 c11 -38 38 -105 60 -150 l40 -83 -1289 0
-1290 0 0 1660 0 1660 390 0 c372 0 393 1 430 20 26 13 47 34 60 60 19 37 20
58 20 430 l0 390 1210 0 1210 0 0 -1230z m-2720 820 l0 -190 -192 0 -193 0
190 190 c104 105 191 190 192 190 2 0 3 -85 3 -190z m3245 -2340 c247 -64 468
-245 580 -475 70 -142 88 -224 88 -395 0 -171 -18 -253 -88 -395 -112 -229
-330 -408 -580 -476 -115 -32 -335 -32 -450 0 -250 68 -468 247 -580 476 -70
142 -88 224 -88 395 0 171 18 253 88 395 123 253 366 437 642 490 105 20 282
13 388 -15z"/>
<path d="M1831 4504 c-207 -44 -386 -206 -452 -405 -19 -59 -24 -95 -24 -179
0 -134 27 -223 101 -331 l51 -76 -46 -24 c-199 -105 -401 -333 -482 -544 -65
-167 -71 -208 -76 -476 -5 -235 -4 -247 16 -287 14 -28 35 -49 61 -62 38 -20
57 -20 980 -20 923 0 942 0 980 20 26 13 47 34 61 62 20 39 21 51 16 282 -5
264 -12 311 -70 464 -47 126 -117 238 -212 340 -81 87 -206 187 -279 224 -23
11 -43 22 -45 24 -2 2 13 25 33 52 175 238 148 562 -63 773 -149 149 -347 208
-550 163z m251 -312 c59 -26 124 -91 151 -151 30 -64 30 -178 0 -242 -27 -60
-92 -125 -152 -152 -65 -30 -177 -30 -247 1 -60 27 -123 88 -156 152 -33 64
-33 176 0 240 62 118 173 184 298 176 33 -2 81 -13 106 -24z m78 -902 c264
-79 458 -279 537 -555 8 -27 17 -114 20 -192 l6 -143 -763 0 -763 0 6 143 c6
146 16 197 60 305 97 237 336 425 592 466 69 11 231 -2 305 -24z"/>
<path d="M4300 1629 c-19 -11 -146 -132 -282 -267 l-247 -246 -103 100 c-110
108 -148 134 -199 134 -72 0 -149 -77 -149 -149 0 -54 27 -90 179 -245 212
-216 257 -238 352 -177 57 37 632 616 653 658 34 68 6 153 -64 192 -48 27 -95
27 -140 0z"/>
</g>
</svg>
